<?xml version="1.0" standalone="no"?>
<!DOCTYPE svg PUBLIC "-//W3C//DTD SVG 20010904//EN"
 "http://www.w3.org/TR/2001/REC-SVG-20010904/DTD/svg10.dtd">
<svg version="1.0" xmlns="http://www.w3.org/2000/svg"
 width="970.000000pt" height="1280.000000pt" viewBox="0 0 970.000000 1280.000000"
 preserveAspectRatio="xMidYMid meet">

<g transform="translate(0.000000,1280.000000) scale(0.100000,-0.100000)"
fill="#000000" stroke="none">
<path d="M800 11983 c0 -5 17 -25 36 -46 l36 -39 24 23 24 22 0 -31 c0 -17 5
-34 10 -37 6 -4 10 17 10 54 0 67 -8 74 -38 36 -11 -14 -24 -25 -29 -25 -5 0
-20 11 -33 25 -23 25 -40 32 -40 18z"/>
<path d="M1062 11926 c2 -31 8 -56 13 -56 15 0 13 102 -3 108 -10 3 -12 -9
-10 -52z"/>
<path d="M1248 11958 c-7 -13 -11 -27 -9 -33 3 -9 7 -33 10 -57 1 -5 6 -8 11
-8 6 0 10 13 10 28 0 16 3 32 7 35 3 4 8 18 9 32 3 32 -21 33 -38 3z"/>
<path d="M1469 11976 c0 -3 0 -26 0 -51 0 -63 0 -65 11 -65 6 0 10 14 10 30 0
20 5 30 15 30 10 0 15 -10 15 -31 0 -20 4 -29 13 -26 15 5 11 68 -5 78 -6 4
-17 5 -25 2 -7 -3 -13 2 -13 10 0 15 -19 35 -21 23z"/>
<path d="M1565 11970 c-3 -5 1 -10 9 -10 9 0 16 5 16 10 0 6 -4 10 -9 10 -6 0
-13 -4 -16 -10z"/>
<path d="M4317 11963 c-9 -9 -9 -63 1 -63 4 0 7 16 7 35 0 19 0 35 -1 35 0 0
-4 -3 -7 -7z"/>
<path d="M4798 11963 c7 -3 16 -2 19 1 4 3 -2 6 -13 5 -11 0 -14 -3 -6 -6z"/>
<path d="M4920 11960 c0 -5 4 -10 9 -10 6 0 13 5 16 10 3 6 -1 10 -9 10 -9 0
-16 -4 -16 -10z"/>
<path d="M5380 11959 c0 -5 5 -7 10 -4 6 3 10 8 10 11 0 2 -4 4 -10 4 -5 0
-10 -5 -10 -11z"/>
<path d="M5606 11955 c4 -8 7 -15 9 -15 2 0 5 7 9 15 3 9 0 15 -9 15 -9 0 -12
-6 -9 -15z"/>
<path d="M9118 11963 c7 -3 16 -2 19 1 4 3 -2 6 -13 5 -11 0 -14 -3 -6 -6z"/>
<path d="M4275 11951 c-3 -5 -1 -12 5 -16 5 -3 10 1 10 9 0 18 -6 21 -15 7z"/>
<path d="M4972 11935 c0 -16 2 -22 5 -12 2 9 2 23 0 30 -3 6 -5 -1 -5 -18z"/>
<path d="M5085 11950 c3 -5 8 -10 11 -10 2 0 4 5 4 10 0 6 -5 10 -11 10 -5 0
-7 -4 -4 -10z"/>
<path d="M5961 11944 c0 -11 3 -14 6 -6 3 7 2 16 -1 19 -3 4 -6 -2 -5 -13z"/>
<path d="M6100 11951 c0 -5 5 -13 10 -16 6 -3 10 -2 10 4 0 5 -4 13 -10 16 -5
3 -10 2 -10 -4z"/>
<path d="M800 11910 c0 -25 4 -39 10 -35 6 3 10 19 10 35 0 16 -4 32 -10 35
-6 4 -10 -10 -10 -35z"/>
<path d="M993 11943 c-7 -2 -13 -9 -13 -14 0 -4 7 -6 15 -3 8 4 15 1 15 -5 0
-6 -6 -11 -14 -11 -8 0 -18 -5 -21 -10 -10 -17 13 -37 40 -37 22 0 25 4 25 37
0 25 -5 40 -16 44 -9 3 -16 6 -17 5 -1 0 -8 -3 -14 -6z"/>
<path d="M1119 11931 c-25 -20 -19 -56 11 -66 29 -9 49 6 22 16 -15 6 -20 14
-15 24 4 12 8 13 13 5 10 -16 31 -3 24 15 -9 22 -32 25 -55 6z"/>
<path d="M1621 11931 c-25 -25 -26 -35 -5 -55 20 -20 38 -20 59 0 20 21 16 43
-12 61 -19 13 -24 12 -42 -6z m39 -32 c0 -24 -23 -21 -28 4 -2 10 3 17 12 17
10 0 16 -9 16 -21z"/>
<path d="M4225 11940 c3 -5 8 -10 11 -10 2 0 4 5 4 10 0 6 -5 10 -11 10 -5 0
-7 -4 -4 -10z"/>
<path d="M1305 11931 c3 -6 10 -9 15 -6 5 3 11 1 15 -5 3 -6 -3 -10 -15 -10
-16 0 -21 -5 -18 -22 2 -18 11 -24 36 -26 33 -3 33 -3 30 35 -3 35 -6 38 -37
41 -22 2 -31 0 -26 -7z m35 -41 c0 -5 -2 -10 -4 -10 -3 0 -8 5 -11 10 -3 6 -1
10 4 10 6 0 11 -4 11 -10z"/>
<path d="M1390 11920 c0 -11 7 -20 15 -20 8 0 15 -5 15 -11 0 -6 -7 -8 -16 -5
-10 4 -14 1 -12 -6 3 -7 15 -13 29 -13 33 0 38 32 7 44 -17 7 -19 10 -5 10 27
1 20 21 -8 21 -18 0 -25 -5 -25 -20z"/>
<path d="M1562 11903 c4 -52 28 -56 28 -4 0 30 -4 41 -16 41 -11 0 -14 -9 -12
-37z"/>
<path d="M1700 11900 c0 -47 23 -52 28 -7 2 15 7 27 12 27 5 0 10 -12 12 -27
2 -14 9 -28 16 -31 10 -3 12 6 10 34 -3 37 -5 39 -40 42 l-38 3 0 -41z"/>
<path d="M5370 11920 c0 -11 4 -20 10 -20 5 0 7 6 4 14 -3 8 2 16 13 19 14 4
14 5 -4 6 -17 1 -23 -5 -23 -19z"/>
<path d="M9133 11933 c18 -5 18 -5 -1 -19 -27 -18 -35 -64 -15 -86 22 -25 79
-24 93 1 5 11 10 29 10 40 0 24 -59 71 -86 70 -18 -1 -18 -2 -1 -6z"/>
<path d="M5310 11918 c0 -4 9 -8 20 -8 11 0 20 4 20 8 0 4 -9 8 -20 8 -11 0
-20 -4 -20 -8z"/>
<path d="M5990 11920 c0 -5 5 -10 11 -10 5 0 7 5 4 10 -3 6 -8 10 -11 10 -2 0
-4 -4 -4 -10z"/>
<path d="M6084 11919 c-3 -5 6 -9 20 -9 31 0 34 6 6 13 -11 3 -23 1 -26 -4z"/>
<path d="M9403 11903 c9 -2 25 -2 35 0 9 3 1 5 -18 5 -19 0 -27 -2 -17 -5z"/>
<path d="M1817 11885 c-8 -18 11 -31 25 -17 11 11 3 32 -12 32 -4 0 -10 -7
-13 -15z"/>
<path d="M7318 10904 c-53 -18 -123 -68 -154 -110 -27 -34 -28 -54 -2 -38 7 5
24 10 37 12 55 7 147 70 162 110 13 35 1 42 -43 26z"/>
<path d="M7142 10682 c-19 -15 -22 -25 -18 -64 3 -33 0 -51 -10 -59 -8 -6 -14
-17 -14 -25 0 -7 -26 -26 -57 -41 -32 -15 -59 -34 -61 -42 -3 -8 11 -3 34 13
21 14 46 26 56 26 9 0 20 5 23 10 3 6 15 10 26 10 10 0 19 4 19 9 0 20 121 40
275 44 130 4 179 1 259 -15 54 -10 100 -17 103 -14 9 9 -18 46 -33 46 -9 0
-28 8 -42 18 -35 24 -49 29 -141 48 -91 19 -192 14 -300 -16 -67 -19 -102 -20
-74 -2 13 9 5 72 -11 72 -6 0 -21 -8 -34 -18z"/>
<path d="M7285 10534 c-56 -9 -135 -37 -135 -48 0 -6 -23 -23 -50 -38 -27 -15
-57 -39 -66 -53 -16 -24 -15 -29 1 -83 33 -112 55 -145 100 -154 22 -4 30 -37
41 -165 5 -55 3 -78 -8 -95 -33 -51 -30 -70 25 -173 50 -94 95 -155 114 -155
5 0 7 28 5 61 -3 34 -1 60 4 58 5 -3 30 -18 56 -34 49 -31 72 -71 62 -109 -2
-11 1 -30 9 -40 14 -19 15 -19 26 2 6 11 12 49 14 84 2 54 0 63 -17 66 -11 2
-30 14 -44 27 -22 21 -23 26 -12 59 6 20 15 36 20 36 4 0 13 13 20 29 8 19 27
37 55 50 54 25 111 75 131 112 15 31 5 39 -16 14 -7 -8 -16 -13 -20 -10 -4 2
-17 -9 -29 -25 -15 -21 -30 -30 -49 -30 -38 0 -102 19 -102 30 0 6 -9 10 -20
10 -11 0 -20 7 -20 15 0 10 16 16 50 21 58 8 67 29 20 47 -60 23 -21 41 68 33
40 -4 48 -3 27 3 -16 5 -43 9 -60 10 -52 2 -59 13 -34 56 16 27 20 42 13 54
-14 22 -11 164 3 168 6 2 16 -11 22 -30 23 -69 73 -107 141 -107 50 0 86 31
96 84 7 39 31 45 26 8 -2 -12 2 -22 7 -22 6 0 11 10 11 23 0 12 7 35 15 51 21
41 19 62 -13 97 -20 22 -44 35 -87 45 -59 15 -340 27 -400 18z m358 -94 c20
-12 37 -24 37 -27 0 -11 -241 4 -252 15 -16 16 -5 24 45 33 63 11 129 3 170
-21z m-463 -66 c0 -2 -9 -4 -21 -4 -11 0 -18 4 -14 10 5 8 35 3 35 -6z m6
-154 l7 -35 -21 19 c-14 12 -22 31 -22 50 0 27 2 29 15 16 8 -9 18 -31 21 -50z"/>
<path d="M6948 10417 c-3 -6 -1 -23 3 -37 9 -25 9 -25 5 2 -2 15 2 29 7 31 8
2 8 5 0 10 -6 4 -13 1 -15 -6z"/>
<path d="M6932 10360 c0 -14 2 -19 5 -12 2 6 2 18 0 25 -3 6 -5 1 -5 -13z"/>
<path d="M7492 10191 c2 -7 7 -12 11 -12 12 1 9 15 -3 20 -7 2 -11 -2 -8 -8z"/>
<path d="M7462 10131 c2 -7 7 -12 11 -12 12 1 9 15 -3 20 -7 2 -11 -2 -8 -8z"/>
<path d="M1010 10013 c-1 -5 -1 -74 0 -155 1 -133 -1 -147 -17 -151 -10 -3 9
-5 42 -6 45 0 56 2 43 10 -14 8 -18 24 -18 75 l0 65 33 -3 c22 -2 35 -10 42
-25 16 -38 25 -26 25 32 0 58 -9 70 -25 33 -7 -16 -20 -24 -42 -26 l-33 -3 0
80 c0 80 0 81 -25 81 -14 0 -25 -3 -25 -7z"/>
<path d="M1178 10014 c-3 -3 4 -24 16 -47 l21 -42 3 33 c2 19 1 40 -2 48 -5
14 -28 19 -38 8z"/>
<path d="M1458 10008 c8 -8 12 -57 12 -154 0 -127 -2 -143 -17 -147 -10 -3 5
-5 32 -5 28 0 44 2 38 5 -10 3 -13 45 -13 159 l0 154 -32 0 c-25 0 -29 -3 -20
-12z"/>
<path d="M1578 10009 c8 -9 12 -55 12 -155 0 -127 -2 -143 -17 -147 -10 -3 0
-5 22 -6 l40 -1 -5 157 -5 158 -30 3 c-24 3 -28 1 -17 -9z"/>
<path d="M1790 10010 c-8 -5 -10 -10 -3 -10 6 0 23 -33 36 -72 53 -151 75
-210 84 -219 5 -5 14 6 22 27 8 22 9 39 4 43 -5 3 -27 53 -48 109 -29 79 -35
106 -26 112 10 5 8 9 -4 14 -23 9 -48 7 -65 -4z"/>
<path d="M1945 10010 c-3 -5 -2 -10 3 -10 5 0 17 -20 26 -44 14 -37 15 -49 5
-68 -11 -20 -10 -21 3 -10 13 10 19 2 43 -65 15 -43 32 -87 38 -97 9 -18 10
-18 23 5 15 27 18 56 6 61 -5 2 -25 50 -45 107 -26 72 -34 107 -27 111 8 5 6
9 -5 14 -25 9 -63 7 -70 -4z"/>
<path d="M2144 10008 c-3 -5 2 -8 10 -8 9 0 16 -5 16 -10 0 -7 7 -7 20 0 11 6
18 15 15 20 -7 11 -54 9 -61 -2z"/>
<path d="M2240 9981 c0 -27 19 -36 37 -18 18 18 9 37 -18 37 -12 0 -19 -7 -19
-19z"/>
<path d="M2613 9923 c-4 -10 -11 -21 -17 -25 -7 -5 -7 -8 2 -8 8 0 12 -22 12
-78 0 -90 15 -122 58 -122 l27 0 -23 18 c-21 16 -23 24 -20 97 3 75 4 80 28
86 25 7 25 7 2 8 -15 1 -26 9 -29 21 -7 25 -31 26 -40 3z"/>
<path d="M1250 9885 c-15 -18 -9 -50 10 -50 8 0 17 14 21 33 7 35 -9 44 -31
17z"/>
<path d="M1348 9888 c7 -7 12 -24 12 -39 0 -21 -6 -29 -22 -32 -23 -4 -23 -4
1 -6 22 -1 23 -4 18 -46 -6 -40 -4 -47 18 -61 15 -10 32 -13 42 -9 17 8 17 8
1 12 -15 4 -18 16 -18 77 0 76 -16 116 -48 116 -12 0 -13 -3 -4 -12z"/>
<path d="M2240 9886 c7 -10 10 -44 8 -100 -3 -84 -2 -86 20 -86 21 0 22 3 22
100 l0 100 -31 0 c-26 0 -29 -2 -19 -14z"/>
<path d="M2355 9800 l0 -100 25 0 c25 0 25 0 23 88 0 48 -1 93 -2 100 -1 6
-11 12 -23 12 -22 0 -23 -3 -23 -100z"/>
<path d="M2473 9888 l28 -10 -3 -89 -3 -89 25 0 25 0 -4 87 c-1 49 -8 94 -13
101 -6 6 -27 12 -47 11 l-36 -1 28 -10z"/>
<path d="M2773 9890 c-27 -11 -53 -59 -53 -99 0 -38 44 -88 85 -96 l30 -7 -25
14 c-37 20 -52 56 -44 108 3 25 10 53 15 63 13 24 65 23 79 -2 17 -33 12 -40
-37 -44 -40 -3 -37 -4 20 -5 76 -2 86 10 42 53 -25 26 -70 32 -112 15z"/>
<path d="M2953 9889 c16 -9 18 -23 16 -102 -3 -84 -2 -92 16 -92 17 0 18 9 19
100 l1 100 -35 3 c-29 2 -32 1 -17 -9z"/>
<path d="M3035 9891 c-3 -6 1 -11 9 -11 9 0 16 -7 16 -16 0 -9 7 -14 18 -12
29 5 21 43 -10 46 -14 2 -29 -2 -33 -7z"/>
<path d="M7637 9820 c-3 -8 -11 -33 -18 -55 -7 -22 -23 -56 -36 -76 -31 -47
-41 -104 -20 -112 22 -8 63 79 78 165 10 64 8 112 -4 78z"/>
<path d="M1694 9808 c-3 -4 14 -8 37 -8 23 0 39 3 36 7 -10 10 -67 11 -73 1z"/>
<path d="M7067 9776 c-33 -29 -73 -52 -125 -70 -42 -15 -100 -36 -129 -46 -66
-23 -93 -38 -93 -50 0 -6 7 -10 15 -10 8 0 15 5 15 10 0 6 27 10 62 10 43 0
67 5 80 17 17 15 20 15 46 -10 16 -15 31 -27 35 -27 4 0 21 -12 38 -27 17 -16
35 -27 40 -25 5 1 9 -8 9 -21 0 -13 7 -32 15 -43 14 -18 14 -18 15 7 0 15 7
32 15 39 13 11 19 9 38 -8 12 -11 47 -31 77 -45 30 -13 64 -34 74 -46 11 -11
27 -21 38 -21 17 0 17 3 -6 48 -14 27 -36 56 -50 66 -14 9 -26 23 -26 30 0 30
-45 47 -84 31 -16 -7 -18 -5 -14 18 3 14 -4 59 -15 99 -10 40 -19 83 -19 96 0
12 -1 22 -2 22 0 -1 -23 -20 -49 -44z"/>
<path d="M1252 9794 c-43 -30 -16 -105 38 -104 8 0 24 8 35 17 20 15 20 15 -1
11 -48 -12 -72 36 -37 74 13 15 13 18 2 18 -8 0 -25 -7 -37 -16z"/>
<path d="M6826 9585 c-3 -8 -4 -15 -3 -15 1 0 16 -4 33 -9 46 -13 64 3 26 23
-38 20 -48 20 -56 1z"/>
<path d="M6578 9582 c-19 -2 -25 -8 -21 -18 3 -8 9 -14 15 -14 5 0 6 5 3 10
-3 6 4 10 16 10 18 0 19 -2 9 -15 -7 -8 -9 -15 -4 -15 11 1 44 25 44 32 0 9
-32 14 -62 10z"/>
<path d="M6526 9562 c-2 -4 -1 -14 5 -22 7 -12 9 -10 9 8 0 23 -5 28 -14 14z"/>
<path d="M6481 9501 c-6 -29 -11 -64 -11 -79 0 -15 -9 -54 -19 -87 -10 -33
-24 -96 -30 -140 -7 -44 -17 -111 -23 -150 -6 -38 -14 -95 -19 -125 -4 -30
-15 -84 -23 -120 -9 -36 -16 -86 -16 -112 0 -26 -9 -70 -20 -97 -13 -34 -19
-74 -19 -123 0 -40 0 -82 -1 -93 -1 -11 0 -78 3 -150 6 -147 28 -282 52 -319
13 -19 14 -32 6 -60 -10 -38 -11 -36 85 -244 27 -60 29 -80 11 -107 -19 -28
-87 -189 -87 -207 0 -23 220 -92 269 -84 35 5 39 4 45 -18 5 -22 13 -25 72
-31 36 -4 82 -4 102 0 20 4 66 6 102 4 36 -2 328 -3 650 -4 l585 0 6 55 c10
91 15 100 57 100 20 0 45 7 55 14 17 13 17 17 -11 68 -28 49 -29 56 -17 88 8
22 18 33 26 31 8 -2 25 -5 38 -5 23 -1 27 7 49 79 13 44 28 98 33 120 6 22 14
44 20 49 12 13 12 29 -1 21 -10 -6 -60 -99 -60 -110 0 -3 0 -7 0 -10 0 -3 -17
6 -39 19 -24 15 -53 25 -77 25 -22 0 -59 6 -84 14 -42 14 -43 15 -15 17 l30 2
-28 12 c-25 11 -27 15 -14 27 12 13 28 65 32 109 1 8 3 21 4 29 0 8 9 11 21 8
24 -6 24 -4 6 36 -8 18 -20 52 -27 77 -12 45 -13 45 -19 15 -6 -24 -8 -27 -14
-13 -5 10 -12 15 -17 12 -12 -7 -42 65 -58 138 -7 32 -17 60 -22 63 -5 4 -9
24 -9 46 0 22 -11 85 -25 141 -29 116 -28 111 -15 103 6 -3 10 -17 10 -29 0
-22 29 -59 31 -40 0 5 6 -4 13 -20 l13 -29 18 46 c20 52 21 48 -49 124 -22 23
-43 40 -47 37 -4 -2 -6 -21 -3 -42 l4 -37 -12 33 c-7 21 -16 31 -25 28 -7 -3
-13 -1 -13 4 0 5 -22 34 -49 64 -77 85 -109 196 -151 531 -12 94 -23 175 -25
180 -2 6 -1 -91 2 -215 3 -124 1 -251 -4 -283 -6 -34 -6 -78 -1 -110 4 -28 10
-99 13 -157 3 -70 10 -117 21 -143 15 -33 16 -40 4 -47 -12 -7 -11 -13 7 -32
27 -30 69 -115 77 -155 7 -39 -15 -49 -71 -34 -21 6 -60 10 -88 10 -27 -1 -39
-3 -25 -5 51 -8 136 -28 152 -36 19 -9 58 -78 58 -100 0 -8 9 -31 19 -51 23
-45 26 -44 -94 -50 -82 -4 -163 -26 -245 -67 -9 -4 -21 -2 -28 7 -7 7 -18 11
-23 7 -17 -10 -89 7 -89 22 0 18 -10 18 -24 -1 -10 -14 -15 -14 -45 1 -28 14
-75 18 -242 23 l-208 6 14 25 c8 14 19 35 24 47 5 12 16 25 24 30 8 4 20 18
26 31 7 13 17 22 24 19 20 -6 18 -24 -5 -35 l-23 -11 23 0 c13 -1 33 -13 45
-27 20 -23 32 -27 111 -31 73 -5 88 -4 84 8 -2 8 -34 21 -71 30 -74 18 -85 27
-116 87 -33 65 -26 69 34 18 22 -19 42 -32 45 -30 5 6 -52 62 -101 99 -25 19
-26 26 -32 146 -6 126 -10 150 -102 534 -31 130 -95 460 -110 566 -8 55 -20
78 -34 64 -5 -6 -13 -82 -18 -171 -8 -153 -10 -164 -42 -228 -18 -37 -35 -65
-38 -62 -7 7 -25 172 -24 210 2 39 -8 66 -24 66 -7 0 -15 -7 -19 -15 -3 -8
-12 -12 -21 -9 -10 4 -15 0 -15 -11 0 -9 5 -13 10 -10 6 4 10 -9 10 -32 l-1
-38 -13 30 c-12 28 -13 27 -10 -30 3 -51 2 -56 -6 -30 -18 50 -39 180 -41 249
-3 86 -14 101 -28 37z m311 -371 c-14 -100 -21 -112 -38 -70 -19 43 -18 56 8
117 32 77 45 55 30 -47z m-281 -589 c13 -11 21 -22 18 -25 -7 -8 -69 25 -69
37 0 13 28 7 51 -12z m-41 -60 c0 -12 -57 -22 -86 -15 -43 11 -26 24 31 24 30
0 55 -4 55 -9z m210 -213 c0 -39 -2 -69 -4 -67 -8 8 -26 132 -20 141 14 22 24
-10 24 -74z m-223 55 c-4 -3 1 -12 11 -19 14 -11 10 -12 -28 -7 -65 7 -80 14
-50 23 32 10 75 12 67 3z m61 -59 c29 -9 8 -24 -34 -24 -46 0 -84 13 -84 30 0
8 86 4 118 -6z m-9 -50 c29 -6 31 -10 31 -48 0 -22 4 -46 8 -53 4 -6 5 -45 2
-85 -4 -40 -3 -75 0 -78 4 -3 9 -12 12 -20 5 -13 -7 -14 -77 -10 -75 4 -106
13 -94 24 2 2 27 0 54 -4 28 -4 53 -6 58 -3 16 10 5 31 -26 48 -32 17 -35 23
-46 94 -13 86 -14 125 -4 134 8 9 41 9 82 1z m1298 -261 c-19 -18 -109 -41
-134 -33 l-28 7 25 11 c49 19 153 31 137 15z m368 -24 c4 -17 4 -33 1 -36 -9
-9 -12 -2 -19 35 -8 41 9 42 18 1z m-330 1 c3 -10 8 -43 10 -72 l4 -53 38 0
c21 0 54 4 73 8 29 6 43 2 77 -20 23 -14 44 -34 47 -42 3 -9 14 -28 23 -42 65
-94 84 -130 95 -178 9 -42 9 -56 0 -59 -6 -2 -21 -21 -34 -43 -22 -39 -75 -68
-99 -54 -35 22 -345 -3 -445 -35 -38 -13 -113 2 -130 25 -9 12 -13 13 -16 3
-9 -25 -33 150 -33 237 l0 90 30 -4 c17 -1 32 -7 35 -11 10 -16 162 28 190 55
30 28 84 47 117 41 24 -5 23 -14 4 117 -8 55 1 78 14 37z m-765 0 c0 -5 -4
-10 -10 -10 -5 0 -10 5 -10 10 0 6 5 10 10 10 6 0 10 -4 10 -10z m-484 -48 c6
-4 17 -18 24 -32 7 -14 33 -56 59 -93 41 -62 47 -67 58 -50 7 10 19 27 27 38
15 20 15 20 16 0 0 -11 7 -30 15 -42 9 -13 18 -56 22 -103 3 -44 9 -80 13 -80
9 0 20 62 20 118 0 41 8 49 43 43 5 -1 -1 12 -12 28 -12 16 -21 33 -21 38 0 6
-9 18 -20 28 -26 24 -25 37 2 33 13 -2 28 -15 36 -30 7 -15 27 -35 45 -46 28
-17 235 -80 322 -97 27 -6 28 -5 12 8 -16 13 -138 56 -245 86 -24 7 -42 14
-40 17 5 5 156 -33 283 -70 44 -14 94 -27 111 -31 34 -7 42 -24 63 -139 11
-63 3 -83 -29 -70 -19 8 -182 54 -192 54 -5 0 -8 -4 -8 -10 0 -5 11 -10 24
-10 13 0 29 -7 36 -15 7 -8 18 -15 24 -15 6 0 39 -10 71 -23 l60 -23 0 -47 c0
-26 0 -47 -1 -47 -1 0 -30 9 -65 20 -129 39 -316 80 -384 84 -86 5 -102 11
-109 42 -6 22 -10 24 -41 18 -22 -4 -41 -2 -50 6 -8 6 -23 9 -34 5 -10 -3 -22
-1 -26 4 -3 6 -21 18 -40 26 -31 15 -33 19 -24 48 11 38 8 41 -24 26 -30 -13
-57 -6 -57 15 0 20 84 59 111 51 16 -5 19 -4 14 5 -5 9 -23 10 -59 5 -28 -3
-48 -3 -44 1 4 3 1 13 -7 20 -8 8 -17 35 -21 61 -4 29 -16 56 -31 71 -29 29
-24 48 19 67 39 17 40 17 54 7z m604 -129 c14 -8 18 -12 9 -10 -9 3 -41 8 -72
12 -31 4 -54 11 -51 16 7 12 83 0 114 -18z m858 -435 c2 -12 -8 -20 -35 -27
-46 -14 -149 -29 -220 -34 -49 -3 -84 5 -72 17 14 15 255 65 299 62 15 0 26
-8 28 -18z m-931 -33 c249 -63 254 -65 248 -75 -4 -6 -20 -10 -36 -10 -17 0
-38 -4 -47 -9 -10 -5 -54 -3 -107 5 -49 7 -142 13 -205 13 -110 1 -140 8 -140
33 0 4 38 8 84 8 47 0 88 4 91 10 6 9 -30 29 -80 45 -16 5 -17 8 -5 15 8 6 16
10 17 10 0 0 81 -20 180 -45z"/>
<path d="M7480 9469 c0 -5 5 -7 10 -4 6 3 10 8 10 11 0 2 -4 4 -10 4 -5 0 -10
-5 -10 -11z"/>
<path d="M7721 9424 c0 -11 3 -14 6 -6 3 7 2 16 -1 19 -3 4 -6 -2 -5 -13z"/>
<path d="M1053 9410 c-47 -28 -67 -74 -68 -152 0 -59 3 -70 31 -105 38 -47 79
-62 45 -16 -43 58 -40 210 5 258 32 34 27 40 -13 15z"/>
<path d="M1203 9418 c-7 -9 -5 -24 6 -48 l16 -35 3 39 c4 43 -9 65 -25 44z"/>
<path d="M1529 9426 c-2 -2 -3 -77 -1 -165 3 -158 3 -161 25 -161 22 0 22 1
19 157 -2 107 -7 160 -15 165 -14 9 -22 10 -28 4z"/>
<path d="M3143 9411 c21 -17 27 -31 27 -59 0 -49 -22 -88 -92 -161 -82 -86
-80 -91 42 -91 l100 0 0 52 c0 50 -14 58 -22 13 -3 -17 -12 -20 -71 -23 -37
-2 -67 1 -67 6 0 5 29 35 65 67 76 67 99 104 90 145 -8 34 -31 56 -70 66 l-30
7 28 -22z"/>
<path d="M1640 9405 c9 -11 11 -51 6 -160 l-7 -145 28 0 28 0 -3 160 -3 160
-31 0 c-26 0 -29 -2 -18 -15z"/>
<path d="M3050 9400 c-37 -37 -19 -93 25 -76 12 4 13 10 3 31 -9 21 -9 31 0
46 16 25 -2 25 -28 -1z"/>
<path d="M3320 9400 c-32 -32 -42 -69 -42 -146 0 -77 16 -122 54 -148 34 -24
42 -19 19 10 -18 23 -21 41 -21 139 0 98 3 116 21 139 17 21 18 26 5 26 -9 0
-25 -9 -36 -20z"/>
<path d="M3431 9391 c19 -26 20 -39 17 -144 -2 -96 -6 -118 -22 -136 -27 -29
-5 -26 28 4 36 33 46 65 46 140 0 71 -11 109 -42 143 -32 34 -54 29 -27 -7z"/>
<path d="M3574 9395 c-27 -27 -28 -42 -1 -59 25 -16 42 5 26 32 -10 17 -10 23
0 36 21 25 3 18 -25 -9z"/>
<path d="M3668 9404 c30 -21 29 -68 -3 -99 -13 -14 -30 -25 -37 -25 -7 0 2 -9
20 -20 56 -34 67 -91 26 -139 -25 -30 -25 -31 -4 -31 12 0 35 13 51 29 50 51
36 111 -36 149 -19 10 -19 11 7 21 29 11 48 38 48 70 0 27 -38 61 -69 61 l-25
0 22 -16z"/>
<path d="M3847 9400 c-41 -32 -59 -129 -41 -219 8 -37 57 -91 82 -91 16 1 16
2 0 14 -28 21 -38 62 -38 157 0 90 14 141 42 152 9 4 8 6 -3 6 -9 1 -28 -8
-42 -19z"/>
<path d="M3951 9394 c22 -24 24 -33 24 -134 0 -97 -2 -112 -23 -139 -27 -37
-7 -44 25 -8 38 41 47 70 47 148 -1 98 -34 159 -87 159 -6 0 0 -12 14 -26z"/>
<path d="M2334 9395 c-4 -9 -2 -21 4 -27 15 -15 44 -1 40 19 -4 23 -36 29 -44
8z"/>
<path d="M2203 9330 c-3 -11 -10 -20 -16 -20 -7 0 -7 -4 1 -12 7 -7 12 -43 12
-93 0 -90 8 -105 55 -104 28 0 28 1 8 9 -21 9 -23 16 -23 93 0 77 2 85 23 95
l22 11 -22 0 c-16 1 -23 7 -23 21 0 12 -7 20 -16 20 -9 0 -18 -9 -21 -20z"/>
<path d="M1314 9292 c-46 -36 -57 -98 -27 -142 33 -49 61 -55 37 -8 -22 43
-13 126 17 151 13 10 16 17 8 17 -8 0 -24 -8 -35 -18z"/>
<path d="M1408 9287 c28 -30 31 -130 5 -159 -14 -15 -14 -18 -1 -18 19 0 44
27 58 64 14 38 -2 88 -37 116 -35 27 -51 25 -25 -3z"/>
<path d="M1787 9299 c-25 -15 -47 -63 -47 -104 0 -27 8 -44 29 -66 38 -37 58
-38 30 0 -18 24 -20 38 -15 87 4 44 11 64 27 77 23 19 6 23 -24 6z"/>
<path d="M1863 9292 c10 -10 17 -28 17 -40 0 -17 6 -22 25 -22 14 0 25 4 25 9
0 17 -51 71 -67 71 -14 0 -14 -2 0 -18z"/>
<path d="M1994 9276 c-38 -38 -44 -77 -19 -126 18 -34 64 -66 50 -34 -5 11
-11 48 -13 82 -3 56 -1 67 19 88 35 38 2 29 -37 -10z"/>
<path d="M2093 9292 c10 -11 14 -26 10 -41 -5 -19 -2 -22 17 -19 33 4 35 24 6
53 -29 29 -59 35 -33 7z"/>
<path d="M2328 9299 c16 -17 16 -171 0 -187 -9 -9 -2 -12 31 -12 35 0 41 3 33
13 -6 7 -12 53 -14 103 l-3 89 -30 3 c-24 3 -28 1 -17 -9z"/>
<path d="M2570 9288 c21 -17 25 -28 25 -83 0 -48 -5 -68 -19 -84 -21 -23 -16
-27 15 -11 25 14 49 62 49 99 0 35 -39 86 -72 94 -23 6 -23 6 2 -15z"/>
<path d="M2699 9220 c2 -61 -1 -95 -9 -105 -11 -13 -7 -15 25 -15 32 0 36 2
25 15 -9 11 -11 37 -8 86 6 84 2 109 -21 109 -14 0 -16 -12 -12 -90z"/>
<path d="M2790 9300 c-12 -8 -11 -10 8 -10 31 0 38 -25 32 -114 l-5 -76 30 0
30 0 -3 67 c-3 86 -8 108 -28 127 -18 18 -42 20 -64 6z"/>
<path d="M2467 9282 c-43 -47 -42 -114 1 -157 31 -31 49 -33 28 -3 -10 14 -16
44 -16 78 0 34 6 64 16 78 12 18 13 22 1 22 -8 0 -21 -8 -30 -18z"/>
<path d="M8150 9285 c0 -5 5 -17 10 -25 5 -8 10 -10 10 -5 0 6 -5 17 -10 25
-5 8 -10 11 -10 5z"/>
<path d="M7012 9098 c2 -120 7 -190 15 -203 19 -31 21 22 8 258 -11 198 -28
159 -23 -55z"/>
<path d="M8016 9185 c-30 -39 -56 -95 -56 -121 0 -15 8 -16 66 -10 37 4 75 11
86 17 21 11 20 21 -14 102 -25 57 -45 60 -82 12z m34 -32 c0 -13 -3 -13 -15
-3 -8 7 -12 16 -9 21 8 13 24 1 24 -18z"/>
<path d="M3555 9184 c-19 -19 -12 -52 17 -76 28 -25 45 -22 22 3 -15 16 -16
24 -6 39 7 11 12 24 12 29 0 17 -29 20 -45 5z"/>
<path d="M1204 9153 c-20 -40 -20 -42 -2 -46 23 -6 31 9 26 55 l-3 33 -21 -42z"/>
<path d="M8201 9087 c-12 -29 -23 -66 -24 -81 -2 -26 1 -28 41 -30 54 -3 61 7
20 32 l-31 20 41 21 c57 29 65 46 18 38 -31 -5 -37 -3 -32 8 3 8 9 22 12 30 4
9 1 15 -9 15 -8 0 -24 -22 -36 -53z"/>
<path d="M1117 9099 c7 -7 15 -10 18 -7 3 3 -2 9 -12 12 -14 6 -15 5 -6 -5z"/>
<path d="M8165 8937 c-2 -12 -6 -56 -9 -97 -5 -61 -2 -85 15 -130 11 -30 27
-80 34 -110 8 -30 21 -60 30 -66 11 -8 15 -27 14 -68 -1 -48 2 -60 20 -72 12
-9 21 -26 21 -40 0 -28 12 -31 30 -8 7 8 23 14 34 13 44 -3 47 2 16 27 -38 33
-28 50 36 60 46 7 57 19 27 28 -10 3 15 4 55 2 71 -3 96 8 47 20 -14 4 -24 9
-21 11 3 3 23 -2 46 -11 22 -9 47 -16 56 -16 27 0 -3 37 -41 50 -36 12 -121 5
-131 -11 -3 -5 -10 -9 -17 -9 -6 0 -2 7 9 15 10 8 29 15 41 15 12 0 25 5 28
10 8 13 -30 13 -78 -1 -27 -7 -42 -7 -51 0 -7 6 -16 8 -20 4 -3 -4 -15 3 -26
15 -11 12 -35 29 -52 38 -39 20 -23 34 43 34 98 0 144 23 72 35 -59 10 -92 25
-98 46 -4 10 -22 31 -41 46 -30 22 -33 28 -20 35 9 5 24 8 34 7 55 -5 56 12 1
34 -31 12 -40 20 -35 32 3 9 6 21 6 26 0 5 45 9 100 9 96 0 133 13 73 25 -16
4 -45 10 -65 14 -22 5 -53 4 -78 -2 -29 -8 -48 -8 -70 0 -27 10 -30 9 -35 -10z"/>
<path d="M8070 8871 c0 -5 7 -14 15 -21 12 -10 15 -10 15 3 0 8 -7 17 -15 21
-8 3 -15 2 -15 -3z"/>
<path d="M1060 8765 c0 -25 5 -45 10 -45 6 0 10 20 10 45 0 25 -4 45 -10 45
-5 0 -10 -20 -10 -45z"/>
<path d="M1893 8760 c0 -25 2 -35 4 -22 2 12 2 32 0 45 -2 12 -4 2 -4 -23z"/>
<path d="M2003 8760 c0 -25 2 -35 4 -22 2 12 2 32 0 45 -2 12 -4 2 -4 -23z"/>
<path d="M3493 8760 c0 -25 2 -35 4 -22 2 12 2 32 0 45 -2 12 -4 2 -4 -23z"/>
<path d="M4050 8760 c0 -22 5 -40 10 -40 6 0 10 18 10 40 0 22 -4 40 -10 40
-5 0 -10 -18 -10 -40z"/>
<path d="M7090 8775 c0 -28 12 -32 30 -10 14 16 6 35 -16 35 -8 0 -14 -10 -14
-25z"/>
<path d="M1332 8750 c0 -19 2 -27 5 -17 2 9 2 25 0 35 -3 9 -5 1 -5 -18z"/>
<path d="M2272 8750 c0 -19 2 -27 5 -17 2 9 2 25 0 35 -3 9 -5 1 -5 -18z"/>
<path d="M2592 8750 c0 -19 2 -27 5 -17 2 9 2 25 0 35 -3 9 -5 1 -5 -18z"/>
<path d="M3082 8750 c0 -19 2 -27 5 -17 2 9 2 25 0 35 -3 9 -5 1 -5 -18z"/>
<path d="M3180 8748 c0 -36 4 -35 14 5 4 16 2 27 -4 27 -5 0 -10 -14 -10 -32z"/>
<path d="M4122 8750 c0 -19 2 -27 5 -17 2 9 2 25 0 35 -3 9 -5 1 -5 -18z"/>
<path d="M1212 8745 c0 -16 2 -22 5 -12 2 9 2 23 0 30 -3 6 -5 -1 -5 -18z"/>
<path d="M1400 8745 c0 -14 5 -25 10 -25 6 0 10 11 10 25 0 14 -4 25 -10 25
-5 0 -10 -11 -10 -25z"/>
<path d="M1472 8745 c0 -16 2 -22 5 -12 2 9 2 23 0 30 -3 6 -5 -1 -5 -18z"/>
<path d="M1678 8750 c-7 -24 -3 -38 8 -28 3 4 4 17 2 30 l-3 23 -7 -25z"/>
<path d="M1712 8745 c0 -16 2 -22 5 -12 2 9 2 23 0 30 -3 6 -5 -1 -5 -18z"/>
<path d="M1752 8745 c0 -16 2 -22 5 -12 2 9 2 23 0 30 -3 6 -5 -1 -5 -18z"/>
<path d="M1792 8745 c0 -16 2 -22 5 -12 2 9 2 23 0 30 -3 6 -5 -1 -5 -18z"/>
<path d="M2100 8745 c0 -14 2 -25 4 -25 2 0 6 11 8 25 3 14 1 25 -3 25 -5 0
-9 -11 -9 -25z"/>
<path d="M2242 8745 c0 -16 2 -22 5 -12 2 9 2 23 0 30 -3 6 -5 -1 -5 -18z"/>
<path d="M2412 8745 c0 -16 2 -22 5 -12 2 9 2 23 0 30 -3 6 -5 -1 -5 -18z"/>
<path d="M2452 8745 c0 -16 2 -22 5 -12 2 9 2 23 0 30 -3 6 -5 -1 -5 -18z"/>
<path d="M2862 8745 c0 -16 2 -22 5 -12 2 9 2 23 0 30 -3 6 -5 -1 -5 -18z"/>
<path d="M3520 8746 c0 -14 5 -26 10 -26 6 0 10 9 10 19 0 11 -4 23 -10 26 -6
4 -10 -5 -10 -19z"/>
<path d="M3792 8745 c0 -16 2 -22 5 -12 2 9 2 23 0 30 -3 6 -5 -1 -5 -18z"/>
<path d="M1261 8744 c0 -11 3 -14 6 -6 3 7 2 16 -1 19 -3 4 -6 -2 -5 -13z"/>
<path d="M1551 8744 c0 -11 3 -14 6 -6 3 7 2 16 -1 19 -3 4 -6 -2 -5 -13z"/>
<path d="M1580 8750 c0 -5 7 -10 16 -10 8 0 12 5 9 10 -3 6 -10 10 -16 10 -5
0 -9 -4 -9 -10z"/>
<path d="M1960 8751 c0 -6 5 -13 10 -16 6 -3 10 1 10 9 0 9 -4 16 -10 16 -5 0
-10 -4 -10 -9z"/>
<path d="M2031 8744 c0 -11 3 -14 6 -6 3 7 2 16 -1 19 -3 4 -6 -2 -5 -13z"/>
<path d="M2070 8744 c0 -8 5 -12 10 -9 6 4 8 11 5 16 -9 14 -15 11 -15 -7z"/>
<path d="M2187 8749 c7 -7 15 -10 18 -7 3 3 -2 9 -12 12 -14 6 -15 5 -6 -5z"/>
<path d="M2372 8740 c0 -14 2 -19 5 -12 2 6 2 18 0 25 -3 6 -5 1 -5 -13z"/>
<path d="M2492 8740 c0 -14 2 -19 5 -12 2 6 2 18 0 25 -3 6 -5 1 -5 -13z"/>
<path d="M2516 8752 c-2 -4 -1 -14 5 -22 7 -12 9 -10 9 8 0 23 -5 28 -14 14z"/>
<path d="M2681 8744 c0 -11 3 -14 6 -6 3 7 2 16 -1 19 -3 4 -6 -2 -5 -13z"/>
<path d="M2791 8744 c0 -11 3 -14 6 -6 3 7 2 16 -1 19 -3 4 -6 -2 -5 -13z"/>
<path d="M2951 8744 c0 -11 3 -14 6 -6 3 7 2 16 -1 19 -3 4 -6 -2 -5 -13z"/>
<path d="M3115 8749 c-4 -6 -5 -12 -2 -15 2 -3 7 2 10 11 7 17 1 20 -8 4z"/>
<path d="M3272 8740 c0 -14 2 -19 5 -12 2 6 2 18 0 25 -3 6 -5 1 -5 -13z"/>
<path d="M3410 8740 c0 -11 5 -20 10 -20 6 0 10 9 10 20 0 11 -4 20 -10 20 -5
0 -10 -9 -10 -20z"/>
<path d="M3440 8744 c0 -8 5 -12 10 -9 6 4 8 11 5 16 -9 14 -15 11 -15 -7z"/>
<path d="M3602 8740 c0 -14 2 -19 5 -12 2 6 2 18 0 25 -3 6 -5 1 -5 -13z"/>
<path d="M3630 8740 c0 -11 4 -20 9 -20 5 0 7 9 4 20 -3 11 -7 20 -9 20 -2 0
-4 -9 -4 -20z"/>
<path d="M3860 8735 c0 -15 4 -24 10 -20 6 3 10 12 10 20 0 8 -4 17 -10 20 -6
4 -10 -5 -10 -20z"/>
<path d="M3985 8750 c-3 -5 -1 -10 4 -10 6 0 11 5 11 10 0 6 -2 10 -4 10 -3 0
-8 -4 -11 -10z"/>
<path d="M3561 8724 c0 -11 3 -14 6 -6 3 7 2 16 -1 19 -3 4 -6 -2 -5 -13z"/>
<path d="M8528 8713 c6 -2 18 -2 25 0 6 3 1 5 -13 5 -14 0 -19 -2 -12 -5z"/>
<path d="M7080 8626 c0 -38 5 -48 35 -75 19 -17 48 -37 63 -45 15 -8 43 -35
62 -60 19 -25 39 -45 44 -46 5 0 6 18 3 39 -4 29 -14 48 -40 71 -20 17 -43 51
-53 75 -11 29 -28 52 -49 65 -52 32 -65 27 -65 -24z"/>
<path d="M1283 8585 c0 -27 2 -38 4 -22 2 15 2 37 0 50 -2 12 -4 0 -4 -28z"/>
<path d="M1389 8618 c-5 -46 -4 -70 3 -74 4 -3 8 15 8 40 0 41 -8 65 -11 34z"/>
<path d="M2733 8585 c0 -27 2 -38 4 -22 2 15 2 37 0 50 -2 12 -4 0 -4 -28z"/>
<path d="M2843 8585 c0 -27 2 -38 4 -22 2 15 2 37 0 50 -2 12 -4 0 -4 -28z"/>
<path d="M3236 8590 c2 -57 14 -63 14 -7 0 26 -3 47 -7 47 -5 0 -8 -18 -7 -40z"/>
<path d="M3338 8623 c-2 -5 -1 -26 3 -48 l6 -40 2 48 c1 44 -3 57 -11 40z"/>
<path d="M7401 8616 c0 -11 -6 -34 -13 -52 -8 -23 -8 -42 -1 -66 l10 -33 7 55
c4 31 6 69 3 85 -2 17 -5 21 -6 11z"/>
<path d="M8435 8613 c-29 -15 -45 -31 -45 -45 0 -3 24 0 53 8 28 7 78 14 110
14 60 0 75 14 31 30 -38 15 -115 11 -149 -7z"/>
<path d="M3809 8608 c0 -7 -2 -25 -4 -40 -2 -16 1 -28 6 -28 5 0 9 18 9 40 0
22 -2 40 -5 40 -3 0 -5 -6 -6 -12z"/>
<path d="M3913 8580 c0 -25 2 -35 4 -22 2 12 2 32 0 45 -2 12 -4 2 -4 -23z"/>
<path d="M2042 8580 c0 -19 2 -27 5 -17 2 9 2 25 0 35 -3 9 -5 1 -5 -18z"/>
<path d="M1752 8570 c0 -19 2 -27 5 -17 2 9 2 25 0 35 -3 9 -5 1 -5 -18z"/>
<path d="M2142 8570 c0 -19 2 -27 5 -17 2 9 2 25 0 35 -3 9 -5 1 -5 -18z"/>
<path d="M3022 8570 c0 -19 2 -27 5 -17 2 9 2 25 0 35 -3 9 -5 1 -5 -18z"/>
<path d="M1171 8574 c0 -11 3 -14 6 -6 3 7 2 16 -1 19 -3 4 -6 -2 -5 -13z"/>
<path d="M1341 8574 c0 -11 3 -14 6 -6 3 7 2 16 -1 19 -3 4 -6 -2 -5 -13z"/>
<path d="M1462 8570 c0 -14 2 -19 5 -12 2 6 2 18 0 25 -3 6 -5 1 -5 -13z"/>
<path d="M1517 8583 c-4 -3 -7 -11 -7 -17 0 -6 5 -5 12 2 6 6 9 14 7 17 -3 3
-9 2 -12 -2z"/>
<path d="M1592 8570 c0 -14 2 -19 5 -12 2 6 2 18 0 25 -3 6 -5 1 -5 -13z"/>
<path d="M1622 8570 c0 -14 2 -19 5 -12 2 6 2 18 0 25 -3 6 -5 1 -5 -13z"/>
<path d="M1662 8565 c0 -16 2 -22 5 -12 2 9 2 23 0 30 -3 6 -5 -1 -5 -18z"/>
<path d="M1792 8565 c0 -16 2 -22 5 -12 2 9 2 23 0 30 -3 6 -5 -1 -5 -18z"/>
<path d="M1832 8565 c0 -16 2 -22 5 -12 2 9 2 23 0 30 -3 6 -5 -1 -5 -18z"/>
<path d="M1857 8575 c-4 -8 -2 -17 3 -20 6 -4 10 3 10 14 0 25 -6 27 -13 6z"/>
<path d="M2182 8565 c0 -16 2 -22 5 -12 2 9 2 23 0 30 -3 6 -5 -1 -5 -18z"/>
<path d="M2222 8565 c0 -16 2 -22 5 -12 2 9 2 23 0 30 -3 6 -5 -1 -5 -18z"/>
<path d="M2251 8548 c-1 -27 3 -48 7 -48 4 0 6 17 4 38 -5 58 -10 62 -11 10z"/>
<path d="M2482 8565 c0 -16 2 -22 5 -12 2 9 2 23 0 30 -3 6 -5 -1 -5 -18z"/>
<path d="M2510 8564 c0 -14 4 -23 10 -19 6 3 10 15 10 26 0 10 -4 19 -10 19
-5 0 -10 -12 -10 -26z"/>
<path d="M2650 8566 c0 -31 6 -34 13 -6 3 11 1 23 -4 26 -5 3 -9 -6 -9 -20z"/>
<path d="M2762 8565 c0 -16 2 -22 5 -12 2 9 2 23 0 30 -3 6 -5 -1 -5 -18z"/>
<path d="M2917 8583 c-11 -10 -8 -43 3 -43 6 0 10 11 10 25 0 26 -2 29 -13 18z"/>
<path d="M2952 8565 c0 -16 2 -22 5 -12 2 9 2 23 0 30 -3 6 -5 -1 -5 -18z"/>
<path d="M2992 8565 c0 -16 2 -22 5 -12 2 9 2 23 0 30 -3 6 -5 -1 -5 -18z"/>
<path d="M3092 8565 c0 -16 2 -22 5 -12 2 9 2 23 0 30 -3 6 -5 -1 -5 -18z"/>
<path d="M3132 8565 c0 -16 2 -22 5 -12 2 9 2 23 0 30 -3 6 -5 -1 -5 -18z"/>
<path d="M3491 8574 c0 -11 3 -14 6 -6 3 7 2 16 -1 19 -3 4 -6 -2 -5 -13z"/>
<path d="M4022 8565 c0 -16 2 -22 5 -12 2 9 2 23 0 30 -3 6 -5 -1 -5 -18z"/>
<path d="M1125 8570 c3 -5 11 -10 16 -10 6 0 7 5 4 10 -3 6 -11 10 -16 10 -6
0 -7 -4 -4 -10z"/>
<path d="M1410 8570 c0 -5 5 -10 10 -10 6 0 10 5 10 10 0 6 -4 10 -10 10 -5 0
-10 -4 -10 -10z"/>
<path d="M1900 8570 c0 -5 5 -10 11 -10 5 0 7 5 4 10 -3 6 -8 10 -11 10 -2 0
-4 -4 -4 -10z"/>
<path d="M2070 8565 c0 -8 2 -15 4 -15 2 0 6 7 10 15 3 8 1 15 -4 15 -6 0 -10
-7 -10 -15z"/>
<path d="M2301 8564 c0 -11 3 -14 6 -6 3 7 2 16 -1 19 -3 4 -6 -2 -5 -13z"/>
<path d="M2321 8564 c0 -11 3 -14 6 -6 3 7 2 16 -1 19 -3 4 -6 -2 -5 -13z"/>
<path d="M2561 8564 c0 -11 3 -14 6 -6 3 7 2 16 -1 19 -3 4 -6 -2 -5 -13z"/>
<path d="M3302 8560 c0 -14 2 -19 5 -12 2 6 2 18 0 25 -3 6 -5 1 -5 -13z"/>
<path d="M3380 8564 c0 -8 5 -12 10 -9 6 3 10 10 10 16 0 5 -4 9 -10 9 -5 0
-10 -7 -10 -16z"/>
<path d="M3411 8564 c0 -11 3 -14 6 -6 3 7 2 16 -1 19 -3 4 -6 -2 -5 -13z"/>
<path d="M3530 8565 c0 -8 2 -15 4 -15 2 0 6 7 10 15 3 8 1 15 -4 15 -6 0 -10
-7 -10 -15z"/>
<path d="M3620 8565 c0 -8 5 -15 10 -15 6 0 10 7 10 15 0 8 -4 15 -10 15 -5 0
-10 -7 -10 -15z"/>
<path d="M3761 8564 c0 -11 3 -14 6 -6 3 7 2 16 -1 19 -3 4 -6 -2 -5 -13z"/>
<path d="M3842 8560 c0 -14 2 -19 5 -12 2 6 2 18 0 25 -3 6 -5 1 -5 -13z"/>
<path d="M3941 8564 c0 -11 3 -14 6 -6 3 7 2 16 -1 19 -3 4 -6 -2 -5 -13z"/>
<path d="M7067 8502 c-2 -4 -7 -19 -11 -34 -7 -32 -13 -27 129 -130 77 -56 95
-74 78 -76 -27 -4 -137 41 -180 74 -45 34 -52 24 -20 -25 21 -31 48 -50 130
-92 114 -57 171 -103 195 -158 l16 -36 9 120 c8 125 3 189 -13 150 -5 -11 -9
-46 -9 -77 -1 -42 -4 -56 -13 -52 -24 10 -88 99 -88 121 0 12 -13 32 -29 45
-16 13 -53 51 -81 86 -50 60 -104 100 -113 84z"/>
<path d="M2713 8405 c0 -27 2 -38 4 -22 2 15 2 37 0 50 -2 12 -4 0 -4 -28z"/>
<path d="M8540 8440 c0 -6 16 -20 35 -31 19 -12 35 -28 35 -36 0 -8 4 -12 9
-9 11 7 21 55 15 71 -6 15 -94 19 -94 5z"/>
<path d="M2232 8395 c0 -16 2 -22 5 -12 2 9 2 23 0 30 -3 6 -5 -1 -5 -18z"/>
<path d="M2441 8404 c0 -11 3 -14 6 -6 3 7 2 16 -1 19 -3 4 -6 -2 -5 -13z"/>
<path d="M2272 8390 c0 -14 2 -19 5 -12 2 6 2 18 0 25 -3 6 -5 1 -5 -13z"/>
<path d="M2312 8390 c0 -14 2 -19 5 -12 2 6 2 18 0 25 -3 6 -5 1 -5 -13z"/>
<path d="M2510 8386 c0 -31 6 -34 13 -6 3 11 1 23 -4 26 -5 3 -9 -6 -9 -20z"/>
<path d="M2670 8390 c0 -11 5 -20 10 -20 6 0 10 9 10 20 0 11 -4 20 -10 20 -5
0 -10 -9 -10 -20z"/>
<path d="M2742 8385 c0 -16 2 -22 5 -12 2 9 2 23 0 30 -3 6 -5 -1 -5 -18z"/>
<path d="M2852 8390 c0 -14 2 -19 5 -12 2 6 2 18 0 25 -3 6 -5 1 -5 -13z"/>
<path d="M2962 8385 c0 -16 2 -22 5 -12 2 9 2 23 0 30 -3 6 -5 -1 -5 -18z"/>
<path d="M8421 8406 c2 -2 18 -6 34 -10 22 -5 26 -4 15 4 -14 9 -59 15 -49 6z"/>
<path d="M2371 8384 c0 -11 3 -14 6 -6 3 7 2 16 -1 19 -3 4 -6 -2 -5 -13z"/>
<path d="M2581 8384 c0 -11 3 -14 6 -6 3 7 2 16 -1 19 -3 4 -6 -2 -5 -13z"/>
<path d="M2771 8384 c0 -11 3 -14 6 -6 3 7 2 16 -1 19 -3 4 -6 -2 -5 -13z"/>
<path d="M7401 8334 c0 -11 3 -14 6 -6 3 7 2 16 -1 19 -3 4 -6 -2 -5 -13z"/>
<path d="M8302 8320 c-24 -23 -27 -35 -12 -45 6 -4 0 -20 -15 -39 -14 -19 -25
-46 -25 -64 l0 -32 55 0 c30 0 55 3 55 6 0 4 -12 17 -27 30 -25 21 -26 25 -12
36 24 20 32 48 12 48 -13 0 -13 3 -2 16 10 13 10 17 0 23 -8 5 4 11 33 15 63
10 68 26 8 26 -35 0 -54 -6 -70 -20z"/>
<path d="M8560 8320 c0 -6 8 -14 18 -17 9 -4 20 -11 24 -17 4 -6 8 0 8 14 0
20 -5 26 -25 28 -14 1 -25 -3 -25 -8z"/>
<path d="M8592 8262 c-3 -20 -35 -56 -82 -92 l-25 -19 27 -1 c16 0 40 11 59
28 26 23 30 33 26 62 -2 19 -5 29 -5 22z"/>
<path d="M960 8051 l0 -138 64 -7 c77 -8 701 -7 721 1 12 4 15 32 15 144 l0
139 -400 0 -400 0 0 -139z m120 -1 c0 -11 -4 -20 -10 -20 -5 0 -10 2 -10 4 0
2 -3 11 -6 20 -4 11 -1 16 10 16 9 0 16 -8 16 -20z m100 1 c0 -13 -7 -18 -25
-18 -28 0 -34 23 -7 30 30 8 32 7 32 -12z m93 5 c3 -8 -1 -20 -10 -28 -14 -11
-15 -10 -9 10 5 13 3 22 -3 22 -6 0 -11 -7 -11 -15 0 -8 -4 -15 -10 -15 -11 0
-14 23 -3 33 12 12 41 7 46 -7z m87 0 c0 -7 -9 -16 -20 -19 -15 -4 -20 0 -20
14 0 12 7 19 20 19 11 0 20 -6 20 -14z m90 -8 c0 -13 -8 -18 -25 -18 -18 0
-25 5 -25 19 0 14 7 19 25 17 17 -1 25 -7 25 -18z m95 -3 c0 -22 -22 -30 -44
-16 -21 14 -5 43 21 39 15 -2 23 -10 23 -23z m98 16 c4 -1 7 -8 7 -16 0 -9 -9
-15 -25 -15 -14 0 -25 2 -25 4 0 2 -2 11 -5 19 -4 10 1 13 17 11 13 -1 26 -3
31 -3z"/>
<path d="M1510 8045 c0 -8 5 -15 10 -15 6 0 10 7 10 15 0 8 -4 15 -10 15 -5 0
-10 -7 -10 -15z"/>
<path d="M8530 8110 c-25 -5 -71 -6 -103 -3 -47 5 -56 3 -52 -8 9 -23 117 -89
146 -89 14 0 10 22 -8 42 -9 10 -14 21 -11 24 3 3 16 -11 28 -31 25 -41 41
-37 39 8 -1 18 2 40 6 50 4 9 6 16 4 16 -2 -1 -24 -5 -49 -9z"/>
<path d="M8301 8100 c0 -18 27 -56 34 -48 3 3 0 12 -8 19 -8 8 -16 21 -20 29
-5 13 -5 13 -6 0z"/>
<path d="M7280 8036 c0 -10 8 -16 22 -16 12 0 19 1 17 3 -2 1 -12 9 -21 16
-15 12 -18 11 -18 -3z"/>
<path d="M8340 8010 c0 -5 5 -10 11 -10 5 0 7 5 4 10 -3 6 -8 10 -11 10 -2 0
-4 -4 -4 -10z"/>
<path d="M8526 7984 c-11 -8 -28 -14 -38 -14 -30 0 -32 -26 -5 -65 l25 -36 22
45 c12 25 20 54 18 65 -3 18 -5 18 -22 5z"/>
<path d="M8450 7898 c0 -18 5 -28 15 -28 19 0 19 11 0 36 -14 18 -14 18 -15
-8z"/>
<path d="M8220 7720 c8 -5 24 -9 35 -9 l20 0 -20 9 c-11 5 -27 9 -35 9 -13 1
-13 0 0 -9z"/>
<path d="M861 5633 c7 -10 24 -30 38 -45 l25 -28 23 22 23 21 0 -31 c0 -17 5
-34 10 -37 6 -4 10 17 10 54 0 66 -10 76 -36 36 -9 -14 -21 -25 -26 -25 -6 0
-19 11 -30 25 -23 30 -59 37 -37 8z"/>
<path d="M4258 5643 c7 -3 16 -2 19 1 4 3 -2 6 -13 5 -11 0 -14 -3 -6 -6z"/>
<path d="M8903 5624 c-13 -14 -23 -32 -23 -39 0 -7 -4 -15 -10 -17 -5 -1 7
-14 26 -27 33 -23 38 -24 63 -10 38 21 41 70 5 98 -33 26 -34 26 -61 -5z m47
-39 c0 -8 -2 -15 -4 -15 -2 0 -6 7 -10 15 -3 8 -1 15 4 15 6 0 10 -7 10 -15z"/>
<path d="M1110 5585 c0 -30 5 -55 10 -55 6 0 10 25 10 55 0 30 -4 55 -10 55
-5 0 -10 -25 -10 -55z"/>
<path d="M1285 5620 c-14 -16 -16 -23 -7 -32 7 -7 12 -22 12 -35 0 -13 5 -23
10 -23 6 0 10 14 10 30 0 17 4 30 9 30 5 0 9 11 9 25 0 30 -18 32 -43 5z"/>
<path d="M1500 5585 c0 -56 16 -77 22 -28 5 39 28 42 28 3 0 -34 21 -38 26 -5
4 28 -14 55 -36 55 -11 0 -20 7 -20 15 0 8 -4 15 -10 15 -5 0 -10 -25 -10 -55z"/>
<path d="M1600 5629 c0 -5 5 -7 10 -4 6 3 10 8 10 11 0 2 -4 4 -10 4 -5 0 -10
-5 -10 -11z"/>
<path d="M4160 5630 c0 -5 5 -10 11 -10 5 0 7 5 4 10 -3 6 -8 10 -11 10 -2 0
-4 -4 -4 -10z"/>
<path d="M4210 5630 c0 -5 5 -10 10 -10 6 0 10 5 10 10 0 6 -4 10 -10 10 -5 0
-10 -4 -10 -10z"/>
<path d="M4010 5618 c0 -5 11 -8 25 -8 14 0 25 3 25 8 0 4 -11 7 -25 7 -14 0
-25 -3 -25 -7z"/>
<path d="M4250 5620 c0 -5 5 -10 11 -10 5 0 7 5 4 10 -3 6 -8 10 -11 10 -2 0
-4 -4 -4 -10z"/>
<path d="M9178 5623 c12 -2 30 -2 40 0 9 3 -1 5 -23 4 -22 0 -30 -2 -17 -4z"/>
<path d="M8608 5613 c6 -2 18 -2 25 0 6 3 1 5 -13 5 -14 0 -19 -2 -12 -5z"/>
<path d="M1035 5600 c-3 -5 1 -10 9 -10 23 0 19 -17 -5 -23 -31 -8 -18 -31 19
-35 30 -3 32 -2 32 31 0 23 -6 37 -16 41 -22 8 -32 8 -39 -4z"/>
<path d="M1162 5598 c-17 -17 -15 -57 2 -64 8 -3 25 -4 38 -1 l23 4 -22 8
c-23 7 -33 45 -12 45 5 0 7 -4 4 -10 -3 -5 1 -10 9 -10 9 0 16 4 16 8 0 12
-22 32 -35 32 -6 0 -16 -5 -23 -12z"/>
<path d="M1345 5601 c-3 -7 2 -11 14 -11 12 0 21 -4 21 -10 0 -5 -9 -10 -20
-10 -13 0 -20 -7 -20 -20 0 -16 7 -20 31 -20 29 0 30 2 27 38 -2 29 -8 38 -25
40 -11 2 -24 -2 -28 -7z"/>
<path d="M1431 5596 c-10 -11 -7 -17 11 -30 l22 -16 -22 0 c-13 0 -20 -4 -17
-10 9 -15 52 -12 58 4 3 8 -4 21 -16 30 -19 13 -20 15 -4 15 10 1 15 6 12 11
-9 14 -31 12 -44 -4z"/>
<path d="M1594 5596 c-8 -22 -1 -59 14 -64 8 -2 12 9 12 37 0 40 -15 55 -26
27z"/>
<path d="M1640 5590 c-16 -31 4 -62 38 -58 21 2 28 9 30 32 5 45 -47 65 -68
26z m45 -20 c0 -7 -6 -15 -12 -17 -8 -3 -13 4 -13 17 0 13 5 20 13 18 6 -3 12
-11 12 -18z"/>
<path d="M1730 5571 c0 -46 17 -56 22 -14 4 39 28 42 28 4 0 -17 5 -31 11 -31
6 0 9 16 7 38 -3 34 -6 37 -35 40 -32 3 -33 2 -33 -37z"/>
<path d="M860 5563 c0 -28 3 -34 10 -23 13 20 13 47 0 55 -6 4 -10 -9 -10 -32z"/>
<path d="M5288 5593 c7 -3 16 -2 19 1 4 3 -2 6 -13 5 -11 0 -14 -3 -6 -6z"/>
<path d="M9198 5583 c6 -2 18 -2 25 0 6 3 1 5 -13 5 -14 0 -19 -2 -12 -5z"/>
<path d="M1840 5555 c0 -9 5 -15 11 -13 6 2 11 8 11 13 0 5 -5 11 -11 13 -6 2
-11 -4 -11 -13z"/>
<path d="M3217 4442 c-41 -45 4 -119 56 -94 21 10 20 11 -8 11 -54 2 -73 42
-36 75 13 12 27 15 42 11 14 -5 19 -4 15 4 -11 17 -51 13 -69 -7z"/>
<path d="M3327 4442 c-23 -25 -21 -57 5 -82 28 -26 44 -25 73 5 30 29 31 49 5
75 -25 25 -62 26 -83 2z m71 -4 c29 -29 7 -78 -35 -78 -35 0 -52 43 -28 70 20
23 45 26 63 8z"/>
<path d="M3452 4403 c3 -57 3 -58 36 -61 18 -2 32 1 32 7 0 6 -11 11 -25 11
-23 0 -25 4 -25 44 0 25 -5 48 -11 51 -7 5 -9 -13 -7 -52z"/>
<path d="M3546 4448 c-4 -9 -6 -36 -4 -60 3 -40 6 -43 36 -46 18 -2 32 1 32 7
0 6 -11 11 -24 11 -23 0 -25 4 -28 53 -2 35 -6 47 -12 35z"/>
<path d="M3642 4403 c3 -57 3 -58 36 -61 39 -4 44 15 5 20 -38 4 -36 31 2 39
l30 6 -30 4 c-18 2 -30 10 -30 19 0 8 13 18 30 21 29 6 29 7 -8 8 l-38 1 3
-57z"/>
<path d="M3753 4448 c-29 -37 -22 -77 17 -98 14 -7 26 -8 38 -1 15 9 14 10 -8
11 -32 0 -50 17 -50 46 0 26 16 40 50 47 22 4 21 4 -6 6 -17 0 -36 -5 -41 -11z"/>
<path d="M3858 4453 c19 -4 22 -11 22 -54 0 -27 5 -49 10 -49 6 0 10 22 10 49
0 39 4 51 18 54 9 3 -5 5 -33 4 -27 0 -40 -2 -27 -4z"/>
<path d="M3963 4405 c0 -33 2 -45 4 -27 2 18 2 45 0 60 -2 15 -4 0 -4 -33z"/>
<path d="M4010 4441 c-15 -29 -12 -56 8 -74 21 -19 45 -21 73 -7 22 12 27 68
7 88 -20 20 -76 15 -88 -7z m78 -3 c26 -26 7 -78 -27 -78 -23 0 -37 12 -45 36
-12 40 43 71 72 42z"/>
<path d="M4141 4403 c1 -32 4 -47 6 -33 9 55 13 56 48 15 l34 -40 -1 60 c-1
34 -3 46 -5 28 -5 -41 -22 -42 -48 -3 -11 16 -23 30 -27 30 -5 0 -7 -26 -7
-57z"/>
<path d="M4398 4403 c45 -2 119 -2 165 0 45 1 8 3 -83 3 -91 0 -128 -2 -82 -3z"/>
<path d="M860 4355 c0 -25 5 -45 10 -45 6 0 10 6 10 14 0 8 10 17 23 19 l22 4
-22 8 c-13 4 -23 11 -23 16 0 6 10 14 23 19 20 8 19 9 -10 9 -32 1 -33 0 -33
-44z"/>
<path d="M982 4353 l-2 -53 33 1 c29 1 30 2 7 8 -21 6 -26 15 -31 51 l-6 45
-1 -52z"/>
<path d="M1058 4388 c7 -7 12 -27 12 -45 0 -18 5 -33 10 -33 6 0 10 18 10 39
0 22 5 42 13 44 6 3 -4 6 -22 6 -27 1 -32 -2 -23 -11z"/>
<path d="M1140 4350 l0 -50 33 1 c30 2 30 2 5 6 -32 5 -37 27 -10 42 16 10 16
10 0 11 -25 0 -22 19 5 30 21 8 21 9 -5 9 -27 1 -28 -1 -28 -49z"/>
<path d="M1221 4353 c1 -26 3 -40 6 -30 5 21 12 21 32 3 14 -13 16 -10 16 27
0 38 -2 42 -27 45 -27 3 -28 2 -27 -45z m49 23 c0 -17 -27 -29 -35 -16 -4 6
-3 15 0 20 9 15 35 12 35 -4z"/>
<path d="M1307 4387 c-7 -17 3 -32 26 -40 22 -8 17 -33 -7 -31 -9 1 -16 -2
-16 -7 0 -15 47 -10 54 6 5 15 -18 45 -35 45 -5 0 -9 7 -9 16 0 11 6 15 20 11
11 -3 18 -1 14 4 -8 14 -41 11 -47 -4z"/>
<path d="M943 4355 c0 -22 2 -30 4 -17 2 12 2 30 0 40 -3 9 -5 -1 -4 -23z"/>
<path d="M3190 4150 c0 -5 -7 -10 -15 -10 -8 0 -15 -4 -15 -10 0 -5 7 -7 16
-3 12 4 15 2 12 -8 -3 -8 -11 -13 -17 -11 -7 1 -10 -2 -6 -7 11 -19 35 1 35
30 0 16 -2 29 -5 29 -3 0 -5 -4 -5 -10z"/>
<path d="M3350 4152 c0 -7 -7 -12 -15 -12 -8 0 -15 -4 -15 -10 0 -5 7 -10 15
-10 17 0 32 27 21 37 -3 4 -6 1 -6 -5z"/>
<path d="M3432 4130 c0 -19 2 -27 5 -17 2 9 2 25 0 35 -3 9 -5 1 -5 -18z"/>
<path d="M2962 4134 c14 -16 15 -23 5 -33 -9 -10 -8 -11 6 -6 23 9 22 18 -5
41 -23 19 -23 19 -6 -2z"/>
<path d="M3452 4120 c0 -14 2 -19 5 -12 2 6 2 18 0 25 -3 6 -5 1 -5 -13z"/>
<path d="M3611 4124 c0 -11 3 -14 6 -6 3 7 2 16 -1 19 -3 4 -6 -2 -5 -13z"/>
<path d="M3003 4120 c2 -8 12 -16 23 -17 13 -2 15 -1 4 4 -8 3 -19 11 -23 17
-6 7 -7 6 -4 -4z"/>
<path d="M3370 4121 c0 -6 5 -13 10 -16 6 -3 10 1 10 9 0 9 -4 16 -10 16 -5 0
-10 -4 -10 -9z"/>
<path d="M3515 4110 c3 -5 8 -10 11 -10 2 0 4 5 4 10 0 6 -5 10 -11 10 -5 0
-7 -4 -4 -10z"/>
<path d="M1090 3961 c-13 -25 -13 -41 1 -41 5 0 8 4 4 9 -3 5 -1 12 5 16 5 3
10 -1 10 -9 0 -9 4 -16 9 -16 6 0 6 12 0 30 -13 35 -15 36 -29 11z"/>
<path d="M1138 3973 c6 -2 12 -16 12 -30 0 -26 10 -27 14 -1 1 7 5 19 9 26 6
8 0 12 -20 11 -15 0 -22 -3 -15 -6z"/>
<path d="M1200 3945 c0 -30 3 -35 23 -34 15 1 17 3 5 6 -18 5 -21 43 -3 55 6
5 3 8 -7 8 -14 0 -18 -8 -18 -35z"/>
<path d="M1342 3971 c-18 -11 -12 -41 10 -55 14 -8 22 -7 35 7 29 29 -10 71
-45 48z m38 -26 c0 -25 -23 -35 -35 -15 -10 16 2 40 20 40 9 0 15 -9 15 -25z"/>
<path d="M1410 3952 c0 -21 5 -28 19 -28 20 0 23 15 6 29 -6 4 -4 11 5 17 12
8 11 10 -7 10 -18 0 -23 -6 -23 -28z"/>
<path d="M1472 3950 c0 -19 2 -27 5 -17 2 9 2 25 0 35 -3 9 -5 1 -5 -18z"/>
<path d="M1500 3945 c0 -29 4 -35 22 -35 21 0 21 0 2 15 -13 10 -14 14 -5 15
10 0 11 3 2 14 -9 11 -9 15 1 19 8 4 7 6 -4 6 -14 1 -18 -7 -18 -34z"/>
<path d="M1565 3969 c-4 -6 -5 -12 -2 -15 2 -3 7 2 10 11 7 17 1 20 -8 4z"/>
<path d="M1013 3945 c2 -24 7 -30 27 -32 22 -2 22 -2 5 6 -11 4 -23 19 -27 32
-6 21 -7 21 -5 -6z"/>
<path d="M1255 3959 c-4 -6 -5 -12 -2 -15 2 -3 7 2 10 11 7 17 1 20 -8 4z"/>
<path d="M1584 3943 c3 -6 -2 -16 -11 -22 -16 -9 -16 -10 -1 -11 23 0 33 19
18 33 -10 9 -11 9 -6 0z"/>
<path d="M1304 3929 c-3 -6 -15 -9 -25 -6 -11 3 -17 1 -13 -4 8 -14 30 -11 44
6 7 8 10 15 7 15 -3 0 -9 -5 -13 -11z"/>
<path d="M5873 3863 c-25 -3 -33 -9 -33 -24 0 -23 18 -26 26 -4 10 24 34 18
34 -9 0 -14 5 -28 10 -31 6 -4 10 7 10 24 0 17 0 34 1 38 1 10 -8 11 -48 6z"/>
<path d="M7466 3854 c-9 -23 3 -37 20 -23 7 6 11 15 8 20 -3 5 2 9 10 9 10 0
16 -9 16 -21 0 -11 7 -27 15 -35 13 -14 15 -11 15 25 0 41 0 41 -39 41 -26 0
-41 -5 -45 -16z"/>
<path d="M5280 3800 c0 -6 5 -10 11 -10 5 0 8 -4 4 -10 -4 -6 -15 -6 -32 1
-47 18 -133 -10 -133 -42 0 -10 -13 -25 -30 -34 -41 -21 -47 -64 -21 -156 11
-41 23 -95 27 -121 3 -28 11 -48 19 -48 9 0 10 9 2 39 -9 33 -7 45 13 87 l23
49 9 -40 c6 -26 5 -49 -3 -68 -10 -24 -9 -31 12 -53 36 -39 134 -86 164 -78
13 3 40 1 60 -6 40 -13 68 0 63 29 -1 9 5 27 15 41 9 13 17 35 17 49 0 13 8
33 18 44 17 19 16 20 -20 13 -31 -6 -38 -4 -38 9 0 8 -5 15 -12 15 -7 0 3 13
22 29 33 27 34 30 21 54 -18 34 -54 42 -91 20 -35 -20 -38 -38 -10 -53 26 -14
26 -40 0 -40 -11 0 -37 7 -56 15 -22 9 -42 12 -51 6 -12 -6 -9 -13 18 -33 l32
-26 -32 -16 c-33 -17 -51 -14 -51 8 0 7 -11 18 -25 24 -14 6 -25 19 -25 28 0
16 1 16 19 0 19 -17 19 -16 16 21 -4 41 -32 70 -49 53 -8 -8 -6 -14 4 -20 8
-5 12 -12 8 -15 -3 -3 -13 2 -22 11 -16 15 -16 18 0 35 11 13 31 19 57 19 32
0 37 2 28 14 -9 11 -7 15 11 20 13 3 33 6 46 6 12 0 25 6 28 14 4 11 12 11 47
-1 23 -8 46 -19 51 -24 6 -5 18 9 32 37 18 38 20 51 12 70 -21 45 -112 51
-128 9 -5 -12 -16 -25 -25 -29 -23 -9 -25 -8 -25 9 0 8 5 15 11 15 6 0 9 5 7
12 -5 14 -48 31 -48 18z m183 -341 c15 -25 15 -27 -1 -23 -10 3 -31 -9 -49
-25 -26 -26 -33 -28 -43 -16 -9 11 -7 20 10 42 17 22 63 57 66 50 0 -1 7 -14
17 -28z m-13 -99 c0 -5 -5 -10 -11 -10 -5 0 -7 5 -4 10 3 6 8 10 11 10 2 0 4
-4 4 -10z"/>
<path d="M6908 3803 c12 -2 22 -9 22 -14 0 -12 -10 -11 -49 2 -42 15 -118 -12
-126 -44 -4 -12 -19 -30 -35 -39 -27 -15 -30 -22 -30 -66 0 -27 7 -69 15 -93
9 -24 19 -70 22 -101 4 -39 10 -58 19 -58 17 0 17 1 4 35 -8 21 -7 35 5 58 8
16 15 34 15 39 0 14 43 68 53 68 5 0 4 -6 -2 -13 -8 -11 -5 -19 14 -37 26 -24
47 -21 27 3 -7 8 -9 16 -6 20 14 14 -8 47 -33 47 -21 0 -23 2 -13 15 7 8 27
17 46 21 18 3 38 12 45 20 6 8 24 14 40 14 16 0 29 5 29 11 0 7 12 8 33 4 17
-4 37 -8 42 -9 6 0 18 -10 28 -20 17 -19 17 -19 17 0 0 11 4 24 10 30 15 15
15 81 1 98 -19 23 -111 18 -111 -6 0 -13 -43 -47 -52 -42 -10 6 3 44 16 44 6
0 4 5 -4 10 -8 5 -26 9 -40 8 -23 -1 -24 -1 -2 -5z"/>
<path d="M5716 3746 c-31 -48 -29 -62 11 -74 35 -11 40 -10 56 10 10 12 17 33
15 47 -2 20 -10 27 -36 32 -27 5 -35 3 -46 -15z"/>
<path d="M7329 3731 c-7 -23 -10 -43 -8 -45 2 -2 21 -6 41 -10 31 -6 39 -3 48
14 6 12 10 33 8 48 -3 23 -8 27 -40 30 -35 3 -37 1 -49 -37z"/>
<path d="M6175 3711 c-7 -13 7 -51 17 -45 5 3 16 0 24 -7 20 -17 29 -4 16 25
-10 23 -48 41 -57 27z"/>
<path d="M4540 3685 c0 -19 5 -25 23 -25 13 0 28 -5 35 -12 9 -9 12 -7 12 8 0
24 -29 54 -53 54 -11 0 -17 -8 -17 -25z"/>
<path d="M8469 3675 c-15 -8 -42 -36 -62 -63 -24 -33 -55 -60 -98 -84 -256
-141 -257 -142 -274 -201 -8 -29 -23 -108 -34 -177 -11 -69 -34 -177 -52 -240
-46 -167 -45 -155 -10 -170 17 -7 31 -16 31 -20 0 -5 16 -23 35 -41 19 -19 35
-39 35 -47 0 -7 7 -15 15 -18 12 -5 14 -58 12 -372 l-2 -367 50 -3 c69 -5 179
16 209 39 33 26 81 24 120 -6 45 -34 100 -41 180 -21 51 13 78 15 119 8 36 -7
72 -6 117 2 l65 12 7 114 c3 63 9 219 13 345 8 280 13 301 90 347 49 29 52 33
45 59 -5 15 -18 87 -30 161 -12 73 -26 145 -31 159 -6 14 -16 68 -23 120 -16
109 -45 180 -84 200 -15 8 -29 16 -32 19 -3 3 -34 20 -70 38 -150 75 -185 100
-222 160 -18 29 -64 63 -85 62 -4 -1 -20 -7 -34 -15z m100 -126 c47 -27 52
-33 36 -41 -23 -14 -162 -14 -195 -1 -25 10 -24 11 24 42 28 17 57 31 65 31 9
0 40 -14 70 -31z m-211 -366 c-10 -2 -28 -2 -40 0 -13 2 -5 4 17 4 22 1 32 -1
23 -4z m23 -41 c-5 -10 -6 -24 -1 -32 9 -15 -12 -54 -45 -82 -25 -22 -35 -22
-35 -3 0 8 5 15 10 15 6 0 10 7 10 16 0 14 -2 14 -16 -1 -24 -24 -42 -3 -25
29 8 13 10 29 7 35 -4 7 -1 9 7 5 8 -3 18 -1 22 5 3 7 -3 11 -17 12 -22 0 -22
1 -3 9 11 5 37 9 58 9 33 1 37 -1 28 -17z m254 -2 c4 -6 -7 -10 -24 -10 -17 0
-31 5 -31 10 0 6 11 10 24 10 14 0 28 -4 31 -10z m55 1 c0 -5 -9 -7 -20 -4
-11 3 -20 7 -20 9 0 2 9 4 20 4 11 0 20 -4 20 -9z m-19 -38 c1 -16 2 -15 6 1
4 15 7 16 14 5 8 -12 11 -12 19 1 8 12 10 11 10 -7 0 -14 -6 -23 -16 -23 -8 0
-12 -4 -9 -10 3 -5 2 -10 -4 -10 -5 0 -12 6 -14 13 -3 6 -6 1 -7 -13 -1 -14
-4 -19 -7 -12 -4 10 -8 10 -19 2 -10 -10 -12 -8 -9 9 2 12 -1 21 -8 21 -7 0
-14 -11 -15 -25 -2 -24 0 -25 48 -24 28 1 53 -1 57 -4 3 -4 -2 -7 -13 -8 -18
0 -18 -1 1 -9 17 -7 17 -9 3 -9 -11 -1 -18 -9 -18 -22 0 -11 -4 -17 -10 -14
-5 3 -10 1 -10 -5 0 -6 -8 -9 -17 -6 -10 3 -33 7 -50 8 -38 3 -45 18 -9 18 14
0 28 4 31 10 4 6 -6 7 -25 4 -19 -4 -30 -2 -30 5 0 6 6 12 13 12 6 1 -1 5 -18
9 l-30 8 31 1 c28 1 31 4 26 26 -2 14 -10 25 -17 25 -8 0 -11 8 -8 20 4 17 14
20 54 20 40 0 49 -3 50 -17z m-278 -137 c4 -9 -3 -16 -19 -19 -27 -5 -29 -2
-11 18 15 18 24 18 30 1z m262 -176 c0 -69 1 -115 3 -102 2 12 8 22 13 22 5 0
10 42 11 93 l1 92 7 -107 c3 -59 9 -110 13 -114 4 -4 7 0 7 9 0 10 5 17 10 17
6 0 10 -10 10 -22 0 -22 -5 -23 -75 -25 -69 -2 -75 0 -75 19 0 16 -5 19 -22
15 -23 -6 -23 -6 -20 101 2 59 5 113 7 120 3 9 21 12 57 10 l53 -3 0 -125z
m-290 110 c-3 -5 0 -10 7 -10 10 0 9 -3 -1 -9 -12 -7 -12 -13 -3 -24 7 -7 9
-17 5 -20 -12 -12 -21 -7 -26 13 -4 17 -11 19 -31 14 -16 -4 -26 -2 -26 5 0 6
8 11 17 11 15 0 14 2 -3 15 -18 13 -16 14 24 15 26 0 41 -4 37 -10z m-3 -117
c-5 -29 -22 -30 -22 -2 0 11 -4 17 -10 14 -5 -3 -10 -2 -10 3 0 6 10 9 23 8
18 -1 22 -6 19 -23z m44 -50 c-10 -10 -19 5 -10 18 6 11 8 11 12 0 2 -7 1 -15
-2 -18z m-26 5 c0 -7 -7 -22 -15 -32 -20 -27 -19 -39 4 -31 11 3 22 1 26 -5 4
-6 -9 -10 -34 -10 -22 0 -43 -5 -47 -11 -4 -8 -10 -7 -18 1 -8 9 -8 14 2 17 6
3 12 12 12 20 0 12 -3 13 -14 4 -10 -9 -16 -9 -21 -1 -11 17 2 24 41 22 29 -2
37 1 41 18 6 22 23 28 23 8z m16 -45 c-10 -10 -19 5 -10 18 6 11 8 11 12 0 2
-7 1 -15 -2 -18z"/>
<path d="M8625 3100 c27 -12 35 -12 35 0 0 6 -12 10 -27 9 -25 0 -26 -1 -8 -9z"/>
<path d="M8628 3013 c12 -2 30 -2 40 0 9 3 -1 5 -23 4 -22 0 -30 -2 -17 -4z"/>
<path d="M6850 3630 c0 -5 5 -10 11 -10 5 0 7 5 4 10 -3 6 -8 10 -11 10 -2 0
-4 -4 -4 -10z"/>
<path d="M7010 3612 l-24 -19 27 -23 c37 -32 34 -40 -13 -40 -22 0 -40 5 -40
10 0 6 -13 10 -30 10 -36 0 -38 -12 -5 -34 30 -20 24 -41 -16 -55 -25 -9 -29
-8 -29 9 0 11 -10 24 -22 31 -13 6 -31 21 -41 33 -17 21 -17 21 -16 -19 0 -22
-2 -52 -6 -67 -6 -23 -1 -34 28 -63 19 -19 44 -35 54 -35 10 0 24 -5 31 -12 7
-7 36 -14 65 -16 28 -1 66 -4 82 -5 25 -2 31 2 33 23 2 14 11 33 19 42 8 9 16
31 17 47 1 17 7 36 14 43 20 20 14 28 -16 22 -19 -4 -32 -1 -41 10 -10 12 -8
19 18 43 28 26 30 30 18 53 -17 33 -73 39 -107 12z m70 -137 c10 -12 7 -19
-17 -39 -31 -28 -73 -34 -73 -12 0 14 55 66 70 66 4 0 13 -7 20 -15z m-3 -111
c-3 -3 -12 -4 -19 -1 -8 3 -5 6 6 6 11 1 17 -2 13 -5z"/>
<path d="M4548 3503 c7 -3 16 -2 19 1 4 3 -2 6 -13 5 -11 0 -14 -3 -6 -6z"/>
<path d="M3680 3492 c0 -5 7 -15 15 -22 8 -7 15 -8 15 -2 0 5 -7 15 -15 22 -8
7 -15 8 -15 2z"/>
<path d="M6292 3420 c-14 -47 -15 -60 -3 -60 14 0 31 58 23 80 -6 16 -9 13
-20 -20z"/>
<path d="M3554 3431 c-44 -20 -60 -36 -46 -45 9 -5 102 49 102 59 0 9 -13 5
-56 -14z"/>
<path d="M4675 3440 c4 -6 -1 -22 -10 -36 -10 -15 -13 -33 -9 -46 6 -20 8 -19
20 11 17 39 18 81 3 81 -5 0 -7 -5 -4 -10z"/>
<path d="M5924 3345 c0 -55 1 -76 3 -47 2 29 2 74 0 100 -2 26 -3 2 -3 -53z"/>
<path d="M7542 3354 c3 -115 18 -119 18 -5 0 53 -4 91 -10 91 -6 0 -9 -35 -8
-86z"/>
<path d="M6180 3370 c0 -5 5 -10 11 -10 5 0 7 5 4 10 -3 6 -8 10 -11 10 -2 0
-4 -4 -4 -10z"/>
<path d="M4550 3360 c0 -5 4 -10 9 -10 6 0 13 5 16 10 3 6 -1 10 -9 10 -9 0
-16 -4 -16 -10z"/>
<path d="M6290 3303 c0 -10 5 -25 10 -33 8 -12 10 -9 10 12 0 15 -4 30 -10 33
-5 3 -10 -2 -10 -12z"/>
<path d="M4668 3298 c-7 -17 8 -46 18 -35 4 4 3 17 -3 29 -7 17 -11 19 -15 6z"/>
<path d="M3590 3281 c0 -4 11 -6 25 -3 14 2 25 6 25 8 0 2 -11 4 -25 4 -14 0
-25 -4 -25 -9z"/>
<path d="M4110 3236 c0 -16 70 -162 123 -255 32 -56 57 -104 55 -106 -2 -1
-30 -19 -63 -40 -33 -21 -80 -55 -103 -77 -32 -30 -50 -39 -68 -35 l-24 4 1
-391 1 -391 -26 2 c-31 2 -34 -13 -5 -22 49 -16 96 58 70 109 -18 36 -30 139
-21 187 13 69 33 338 26 355 -21 56 32 142 102 165 19 6 50 22 70 35 19 13 39
24 43 24 14 0 11 134 -3 148 -9 9 -9 12 3 12 10 1 9 3 -4 11 -25 15 -69 88
-63 105 3 7 -4 18 -14 24 -11 6 -31 35 -45 64 -22 47 -55 90 -55 72z"/>
<path d="M4557 3203 c-11 -10 -8 -43 3 -43 6 0 10 11 10 25 0 26 -2 29 -13 18z"/>
<path d="M6180 3189 c0 -11 5 -17 10 -14 6 3 10 13 10 21 0 8 -4 14 -10 14 -5
0 -10 -9 -10 -21z"/>
<path d="M7547 3163 c-11 -10 -8 -71 3 -78 6 -4 10 12 10 39 0 47 -2 51 -13
39z"/>
<path d="M5917 3147 c-3 -8 -2 -29 3 -48 8 -33 8 -33 9 14 1 48 -3 58 -12 34z"/>
<path d="M6188 3043 c7 -3 16 -2 19 1 4 3 -2 6 -13 5 -11 0 -14 -3 -6 -6z"/>
<path d="M5115 2972 c-6 -4 -16 -20 -23 -35 -6 -15 -22 -32 -34 -37 -22 -9
-22 -9 3 -9 30 -1 93 51 87 71 -5 15 -20 20 -33 10z"/>
<path d="M6724 2963 c-11 -37 -22 -48 -50 -54 -28 -5 -28 -5 -6 -13 25 -8 63
11 94 48 24 29 22 36 -7 36 -16 0 -28 -7 -31 -17z"/>
<path d="M6484 2920 c1 -34 3 -35 30 -15 20 15 20 15 0 30 -27 21 -31 19 -30
-15z"/>
<path d="M4550 2926 c-5 -5 -10 -45 -10 -87 0 -77 0 -78 32 -93 30 -15 32 -15
47 6 15 21 39 97 41 124 0 18 -97 63 -110 50z"/>
<path d="M4859 2926 c6 -7 8 -21 5 -31 -7 -16 -5 -16 20 0 l28 18 -24 13 c-30
17 -43 17 -29 0z"/>
<path d="M6177 2933 c-4 -3 -7 -44 -7 -90 0 -65 3 -83 14 -83 8 0 21 -7 29
-15 13 -13 17 -12 30 8 18 28 37 93 37 128 0 23 -5 28 -35 33 -19 4 -35 11
-35 16 0 11 -23 13 -33 3z"/>
<path d="M6430 2930 c0 -5 5 -10 10 -10 6 0 10 5 10 10 0 6 -4 10 -10 10 -5 0
-10 -4 -10 -10z"/>
<path d="M4800 2920 c0 -5 5 -10 10 -10 6 0 10 5 10 10 0 6 -4 10 -10 10 -5 0
-10 -4 -10 -10z"/>
<path d="M7524 2867 c-17 -23 -44 -49 -60 -57 -57 -29 -58 -33 -35 -110 12
-38 26 -72 32 -75 6 -4 10 -1 8 6 -1 8 -1 27 0 43 1 23 3 26 15 17 25 -21 55
-88 49 -109 -8 -33 -73 -39 -73 -6 0 19 -6 18 -132 -12 -61 -15 -125 -37 -144
-50 l-34 -23 -14 32 -15 32 6 -35 c13 -80 79 -218 106 -222 11 -2 28 -18 38
-36 9 -19 24 -41 33 -51 8 -9 18 -36 22 -59 l7 -42 -64 0 c-70 -1 -64 -17 7
-22 34 -3 39 -7 42 -30 2 -15 -4 -42 -12 -60 -19 -40 -103 -138 -118 -138 -7
0 -19 -6 -27 -14 -33 -28 -144 -54 -461 -106 -68 -12 -126 -23 -129 -26 -2 -2
197 -4 443 -4 389 0 447 2 452 15 4 8 1 22 -6 30 -10 12 -12 53 -8 166 3 83 2
167 -4 185 -5 19 -8 51 -6 72 l4 37 16 -35 c17 -36 76 -69 98 -55 11 6 8 770
-2 780 -2 3 -18 -14 -34 -38z m-3 -342 c25 -14 28 -19 19 -36 -9 -16 -19 -19
-48 -17 -30 2 -38 7 -40 27 -3 22 11 40 31 41 4 0 21 -7 38 -15z m25 -322
c-10 -10 -19 5 -10 18 6 11 8 11 12 0 2 -7 1 -15 -2 -18z"/>
<path d="M5895 2856 c-26 -34 -68 -65 -109 -79 -9 -3 30 -135 45 -152 5 -5 9
4 9 22 0 18 4 35 10 38 11 7 60 -68 60 -92 -1 -43 -41 -62 -70 -33 -11 11 -26
20 -34 20 -32 0 -214 -53 -245 -71 -27 -16 -36 -17 -42 -7 -6 9 -9 4 -9 -14 0
-43 74 -196 95 -195 10 1 25 -14 38 -37 12 -22 28 -47 36 -57 8 -10 16 -24 17
-31 2 -7 6 -23 10 -35 6 -22 4 -23 -62 -23 -63 -1 -67 -2 -50 -15 11 -8 40
-15 64 -15 l44 0 -7 -37 c-9 -50 -25 -79 -73 -133 -74 -84 -142 -109 -417
-154 -88 -15 -174 -29 -192 -32 -18 -2 -35 -9 -38 -15 -6 -9 832 -3 863 7 9 3
10 9 3 22 -16 30 -23 141 -13 217 7 51 5 88 -4 135 -8 36 -14 78 -14 95 1 29
1 29 15 11 8 -11 15 -27 15 -37 0 -17 11 -24 62 -39 21 -7 28 -5 32 8 6 19 1
761 -5 766 -2 2 -18 -15 -34 -38z m19 -346 c18 -18 -8 -45 -44 -45 -40 0 -61
25 -40 50 15 18 65 14 84 -5z m6 -306 c0 -8 -5 -12 -10 -9 -6 4 -8 11 -5 16 9
14 15 11 15 -7z"/>
<path d="M6433 2870 c1 -17 7 -30 12 -29 6 0 8 6 6 13 -2 6 -3 19 -3 29 0 9
-3 17 -9 17 -5 0 -8 -14 -6 -30z"/>
<path d="M4804 2868 c3 -13 6 -30 6 -37 0 -11 3 -12 12 -3 8 8 8 15 0 25 -9
10 -9 16 0 25 9 9 8 12 -6 12 -14 0 -17 -5 -12 -22z"/>
<path d="M6511 2855 c-1 -16 -3 -17 -11 -5 -6 10 -9 -5 -9 -46 1 -72 7 -85 37
-77 21 5 22 9 16 72 -7 69 -13 91 -15 50 l-1 -24 -8 25 c-7 21 -8 22 -9 5z"/>
<path d="M1018 2848 c7 -7 12 -21 13 -32 1 -18 2 -17 8 4 9 31 32 32 47 2 10
-20 12 -21 18 -7 9 23 8 25 -9 25 -8 0 -15 5 -15 10 0 6 -17 10 -37 10 -29 0
-34 -3 -25 -12z"/>
<path d="M1140 2851 c0 -6 6 -8 14 -5 8 3 16 -2 20 -13 4 -15 5 -15 3 2 -2 20
-37 35 -37 16z"/>
<path d="M1200 2825 c0 -19 4 -35 8 -35 5 0 7 13 4 29 -3 22 0 30 15 34 15 4
14 5 -4 6 -20 1 -23 -4 -23 -34z"/>
<path d="M4867 2795 c4 -38 7 -90 7 -115 1 -42 3 -45 25 -42 33 3 34 5 26 41
-5 22 -11 28 -22 24 -12 -5 -14 -1 -8 15 4 13 2 22 -4 22 -6 0 -11 5 -11 10 0
17 28 11 33 -7 3 -12 5 -8 6 9 1 31 -17 47 -30 27 -7 -11 -9 -10 -9 4 0 9 7
17 15 17 10 0 15 10 15 30 0 36 -29 43 -31 8 -1 -22 -1 -22 -10 2 -5 15 -6 -2
-2 -45z"/>
<path d="M6920 2830 c-19 -11 -45 -19 -58 -20 -32 0 -23 -24 11 -28 14 -2 39
4 55 12 16 8 32 12 36 9 3 -4 6 6 6 20 0 32 -4 32 -50 7z"/>
<path d="M5286 2819 c-22 -11 -50 -19 -63 -16 -23 4 -23 3 -7 -14 21 -23 37
-24 92 -1 25 10 41 23 40 31 -5 23 -20 23 -62 0z"/>
<path d="M6505 2655 c4 -27 7 -60 7 -72 0 -28 9 -29 31 -5 22 24 21 29 -4 35
-21 6 -22 32 -1 32 18 0 23 12 16 39 -5 20 -12 25 -31 24 -24 -2 -25 -4 -18
-53z"/>
<path d="M6862 2682 c-9 -6 2 -16 37 -35 62 -34 91 -35 91 -3 0 13 -6 28 -12
33 -17 12 -99 16 -116 5z"/>
<path d="M5230 2671 c0 -11 97 -61 118 -61 9 0 12 10 10 33 -3 32 -3 32 -65
35 -36 2 -63 -1 -63 -7z"/>
<path d="M6615 2649 c-9 -17 -15 -46 -13 -67 l4 -37 13 47 c7 26 19 53 27 59
18 15 18 29 -1 29 -8 0 -22 -14 -30 -31z"/>
<path d="M4987 2635 c-18 -38 -23 -95 -8 -95 5 0 11 18 15 40 3 22 15 49 26
60 25 25 25 30 2 30 -11 0 -25 -14 -35 -35z"/>
<path d="M4880 2611 c0 -5 5 -13 10 -16 7 -4 7 -11 2 -18 -5 -7 -7 -33 -4 -59
4 -43 7 -48 28 -48 21 0 24 5 24 35 0 27 -5 38 -22 44 l-21 8 22 16 23 15 -31
16 c-17 9 -31 12 -31 7z m42 -106 c0 -5 -5 -11 -11 -13 -6 -2 -11 4 -11 13 0
9 5 15 11 13 6 -2 11 -8 11 -13z"/>
<path d="M6177 2600 c-4 -14 -7 -87 -7 -163 0 -117 2 -139 16 -144 17 -6 37
15 28 29 -9 14 17 78 31 78 8 0 19 -9 26 -21 9 -17 17 -20 43 -15 l33 6 12
-72 c7 -40 17 -86 22 -103 6 -16 14 -43 19 -60 17 -67 42 -146 45 -143 2 2 0
105 -4 230 -6 191 -10 229 -24 243 -9 9 -17 22 -17 28 0 7 -8 21 -16 32 -15
19 -15 19 -9 -5 3 -14 7 -35 8 -47 0 -13 5 -23 9 -23 4 0 8 -10 8 -21 0 -21
-3 -22 -87 -15 -72 6 -112 16 -131 31 -1 1 5 30 14 64 12 43 14 65 7 69 -6 4
-13 16 -15 27 -3 18 -5 17 -11 -5z"/>
<path d="M4547 2572 c-7 -39 1 -283 9 -291 12 -13 34 13 34 39 0 35 16 70 31
70 6 0 19 -10 29 -22 15 -19 21 -21 43 -11 30 14 37 9 37 -26 0 -39 25 -145
59 -251 l30 -95 0 65 c-1 161 -16 389 -26 402 -6 7 -21 36 -32 63 l-20 50 6
-45 c3 -25 12 -62 19 -84 l14 -38 -78 6 c-88 8 -142 23 -142 39 0 6 5 37 12
69 9 42 9 61 2 66 -6 4 -13 14 -16 22 -2 8 -8 -4 -11 -28z"/>
<path d="M1178 2593 c7 -3 16 -2 19 1 4 3 -2 6 -13 5 -11 0 -14 -3 -6 -6z"/>
<path d="M6515 2530 c-3 -11 -3 -25 2 -32 4 -7 8 -33 8 -58 0 -41 2 -45 25
-45 22 0 25 4 22 30 -1 17 -3 41 -3 55 1 47 -9 70 -29 70 -10 0 -21 -9 -25
-20z m35 -15 c0 -8 -4 -15 -10 -15 -5 0 -10 7 -10 15 0 8 5 15 10 15 6 0 10
-7 10 -15z m10 -90 c0 -8 -4 -15 -10 -15 -5 0 -10 7 -10 15 0 8 5 15 10 15 6
0 10 -7 10 -15z"/>
<path d="M7093 2505 c4 -11 9 -33 13 -50 4 -16 9 -34 13 -40 3 -5 6 -13 6 -17
0 -5 3 -8 8 -8 4 0 9 0 12 0 7 0 -36 113 -47 125 -7 7 -8 3 -5 -10z"/>
<path d="M5160 2495 l-25 -14 36 -1 c26 0 43 -8 64 -30 23 -24 37 -30 72 -30
24 0 43 5 43 10 0 6 -6 10 -12 10 -7 0 -39 16 -71 35 -65 39 -71 40 -107 20z"/>
<path d="M6770 2495 c-11 -13 -8 -14 17 -9 24 5 37 0 65 -25 30 -26 44 -31 84
-31 l49 1 -49 27 c-27 15 -58 33 -70 39 -29 17 -81 16 -96 -2z"/>
<path d="M5475 2468 c3 -13 10 -37 14 -53 10 -38 31 -78 38 -72 2 3 0 14 -6
25 -6 12 -11 31 -11 44 0 29 -21 78 -34 78 -4 0 -5 -10 -1 -22z"/>
<path d="M4901 2442 c-16 -29 -2 -64 23 -60 24 3 34 41 16 64 -16 19 -27 18
-39 -4z m29 -27 c0 -8 -4 -15 -10 -15 -5 0 -10 7 -10 15 0 8 5 15 10 15 6 0
10 -7 10 -15z"/>
<path d="M7000 2380 c-13 -8 -12 -10 3 -10 9 0 17 5 17 10 0 12 -1 12 -20 0z"/>
<path d="M5360 2370 c-12 -8 -9 -10 13 -10 16 0 26 4 22 10 -8 12 -16 12 -35
0z"/>
<path d="M6277 2292 c-10 -10 -17 -24 -17 -31 0 -19 -43 -51 -61 -45 -20 5
-32 -20 -23 -48 5 -17 12 -18 47 -13 23 4 57 13 75 21 l33 13 -17 33 c-10 18
-17 45 -16 61 3 32 0 33 -21 9z"/>
<path d="M4647 2282 c-10 -10 -17 -24 -17 -30 0 -19 -31 -42 -56 -42 -21 0
-24 -5 -24 -35 0 -19 3 -35 8 -35 24 2 126 30 134 38 6 6 3 22 -7 42 -10 19
-14 42 -11 56 8 29 -5 31 -27 6z"/>
<path d="M7206 2241 c-9 -13 43 -44 62 -36 13 5 11 9 -11 20 -15 8 -31 16 -36
20 -5 3 -12 1 -15 -4z"/>
<path d="M5585 2220 c10 -11 30 -20 44 -19 l26 0 -24 17 c-13 9 -33 18 -44 19
-20 3 -20 3 -2 -17z"/>
<path d="M5606 1986 c-50 -59 -63 -96 -18 -53 26 25 79 107 69 107 -3 0 -25
-24 -51 -54z"/>
<path d="M7226 1988 c-45 -52 -54 -68 -38 -68 17 0 99 107 89 116 -2 3 -25
-19 -51 -48z"/>
<path d="M3505 1950 c-18 -8 -17 -9 7 -9 15 -1 30 4 33 9 7 12 -12 12 -40 0z"/>
<path d="M3671 1950 c9 -5 28 -6 45 0 27 8 26 8 -16 9 -32 0 -40 -2 -29 -9z"/>
<path d="M7888 1353 c7 -3 16 -2 19 1 4 3 -2 6 -13 5 -11 0 -14 -3 -6 -6z"/>
<path d="M3017 1319 c4 -13 8 -18 11 -10 2 7 -1 18 -6 23 -8 8 -9 4 -5 -13z"/>
<path d="M7768 1323 c7 -3 16 -2 19 1 4 3 -2 6 -13 5 -11 0 -14 -3 -6 -6z"/>
<path d="M4500 1310 c0 -6 7 -10 15 -10 8 0 15 2 15 4 0 2 -7 6 -15 10 -8 3
-15 1 -15 -4z"/>
<path d="M6138 1313 c7 -3 16 -2 19 1 4 3 -2 6 -13 5 -11 0 -14 -3 -6 -6z"/>
<path d="M2888 1303 c7 -3 16 -2 19 1 4 3 -2 6 -13 5 -11 0 -14 -3 -6 -6z"/>
<path d="M4625 1290 c-4 -6 3 -10 14 -10 25 0 27 6 6 13 -8 4 -17 2 -20 -3z"/>
</g>
</svg>
